<svg xmlns="http://www.w3.org/2000/svg" xmlns:xlink="http://www.w3.org/1999/xlink" width="71.604" height="71.588" viewBox="0 0 71.604 71.588"><defs><linearGradient id="a" y1="0.5" x2="1" y2="0.5" gradientUnits="objectBoundingBox"><stop offset="0" stop-color="#009dfc"/><stop offset="1" stop-color="#2af497"/></linearGradient></defs><g transform="translate(-281.674 -544.29)"><path d="M353.278,562.1a1.759,1.759,0,0,0-.079-.389l-.033-.062a.442.442,0,0,0-.112-.162l-6.829-8.92V549.7a5.416,5.416,0,0,0-5.425-5.411H294.152a5.415,5.415,0,0,0-5.425,5.411v2.866l-6.829,8.92a.442.442,0,0,0-.112.162c-.017.032-.03.032-.03.062a1.56,1.56,0,0,0-.082.389v.03a6.709,6.709,0,0,0,6.875,6.506h.178v28.788a5.442,5.442,0,0,0,5.425,5.445h16.3l-.887,6.407a27.965,27.965,0,0,0-10.094,4.637,1.125,1.125,0,0,0-.39,1.226,1.107,1.107,0,0,0,1.033.739h34.73a1.089,1.089,0,0,0,1.032-.739,1.118,1.118,0,0,0-.389-1.226,27.842,27.842,0,0,0-10.094-4.637l-.887-6.407h16.3a5.442,5.442,0,0,0,5.425-5.445V568.636h.178a6.709,6.709,0,0,0,6.875-6.506Zm-18.292-9.147,3.915,8.082h-8.986l-2-8.082Zm-9.306,0,1.995,8.082h-9.111v-8.082Zm-9.292,8.082h-9.1l1.995-8.082h7.1Zm-11.334,0h-8.986l3.914-8.082h7.067Zm-.386,2.19a4.822,4.822,0,0,1-9.1,0Zm11.578,0a4.834,4.834,0,0,1-9.115,0Zm11.575,0a4.832,4.832,0,0,1-9.112,0Zm11.577,0a4.822,4.822,0,0,1-9.1,0Zm1.916-2.19-3.911-8.082h6.391l6.2,8.082Zm-47.162-14.589H340.8a3.258,3.258,0,0,1,3.268,3.255v1.1H290.9v-1.1A3.244,3.244,0,0,1,294.152,546.446Zm-2.995,6.507h6.408l-3.911,8.082h-8.7Zm-7.165,10.272h9.1a4.822,4.822,0,0,1-9.1,0Zm19.855,50.5a30.138,30.138,0,0,1,27.274,0Zm19.288-4.9a33.447,33.447,0,0,0-11.318,0l.821-5.955h9.675Zm17.665-8.145H294.152a3.244,3.244,0,0,1-3.252-3.255h53.168A3.258,3.258,0,0,1,340.8,600.679Zm-32.445-7.053a1.626,1.626,0,0,1,3.251,0,1.626,1.626,0,1,1-3.251,0Zm14.331,0a1.626,1.626,0,0,1,3.252,0,1.626,1.626,0,1,1-3.252,0Zm4.363-13.494h-19.6l-.854-3.252h21.141Zm-.452,2.189-.676,3.255H308.886l-.855-3.255Zm17.471,12.947H327.725a3.691,3.691,0,0,0-.726-4.284l.871-4.122h0l2.256-10.852h0l.112-.482a3.92,3.92,0,0,1,3.815-3.123,1.08,1.08,0,1,0,0-2.16,6.072,6.072,0,0,0-5.83,4.479H305.2a1.126,1.126,0,0,0-.871.418,1.071,1.071,0,0,0-.175.934L307,586.928a1.068,1.068,0,0,0,1.045.8h17.421L325,589.922a2.43,2.43,0,0,0-.692-.095,3.828,3.828,0,0,0-3.8,3.8,3.7,3.7,0,0,0,.389,1.642h-7.506a3.7,3.7,0,0,0,.386-1.642,3.8,3.8,0,0,0-7.6,0,3.751,3.751,0,0,0,.386,1.642H290.9V568.217a6.791,6.791,0,0,0,3.43-2.608,7.049,7.049,0,0,0,11.578,0,7.049,7.049,0,0,0,11.578,0c1.207,1.8,10.351,1.8,11.574,0a7.056,7.056,0,0,0,11.562.033,6.7,6.7,0,0,0,3.446,2.575Zm2.335-28.821a4.62,4.62,0,0,1-4.541-3.222h9.1A4.626,4.626,0,0,1,346.4,566.447Z" fill="url(#a)"/></g></svg>