<svg xmlns="http://www.w3.org/2000/svg" xmlns:xlink="http://www.w3.org/1999/xlink" width="63.91" height="61.856" viewBox="0 0 63.91 61.856"><defs><linearGradient id="a" y1="0.5" x2="1" y2="0.5" gradientUnits="objectBoundingBox"><stop offset="0" stop-color="#009dfc"/><stop offset="1" stop-color="#2af497"/></linearGradient><linearGradient id="b" x1="0" y1="0.5" x2="1" y2="0.5" xlink:href="#a"/><linearGradient id="c" x1="0" y1="0.5" x2="1" y2="0.5" xlink:href="#a"/><linearGradient id="d" x1="0" y1="0.5" x2="1" y2="0.5" xlink:href="#a"/><linearGradient id="e" x1="0" y1="0.5" x2="1" y2="0.5" xlink:href="#a"/><linearGradient id="g" x1="0" y1="0.5" x2="1" y2="0.5" xlink:href="#a"/></defs><g transform="translate(-941.003 -549.156)"><path d="M1001.049,552.173h-4.141v-2.04a.963.963,0,1,0-1.925,0v2.04H987.61v-2.04a.963.963,0,1,0-1.925,0v2.04h-7.358v-2.04a.97.97,0,1,0-1.94,0v2.04h-7.358v-2.04a.97.97,0,1,0-1.94,0v2.04h-7.358v-2.04a.971.971,0,1,0-1.942,0v2.04H950.43v-2.04a.97.97,0,1,0-1.939,0v2.04h-3.606A3.894,3.894,0,0,0,941,556.055V607.13a3.875,3.875,0,0,0,3.882,3.882h56.164a3.861,3.861,0,0,0,3.864-3.882V556.055A3.879,3.879,0,0,0,1001.049,552.173Zm0,56.911H944.885a1.952,1.952,0,0,1-1.942-1.954V563.3h.488a.977.977,0,0,0,0-1.954h-.488v-5.289a1.93,1.93,0,0,1,1.942-1.928h3.606V556.2a.97.97,0,0,0,1.939,0v-2.072h7.359V556.2a.971.971,0,0,0,1.942,0v-2.072h7.358V556.2a.97.97,0,0,0,1.94,0v-2.072h7.358V556.2a.97.97,0,0,0,1.94,0v-2.072h7.358V556.2a.963.963,0,0,0,1.925,0v-2.072h7.373V556.2a.963.963,0,0,0,1.925,0v-2.072h4.141a1.927,1.927,0,0,1,1.925,1.928v5.289h-.474a.977.977,0,0,0,0,1.954h.474V607.13A1.949,1.949,0,0,1,1001.049,609.084Z" fill="url(#a)"/><path d="M952.14,562.321a.967.967,0,0,0-.977-.977h-2.887a.977.977,0,0,0,0,1.954h2.887A.968.968,0,0,0,952.14,562.321Z" fill="url(#b)"/><path d="M971.513,563.3h2.905a.977.977,0,0,0,0-1.954h-2.905a.977.977,0,0,0,0,1.954Z" fill="url(#c)"/><path d="M967.634,562.321a.965.965,0,0,0-.963-.977h-2.9a.977.977,0,0,0,0,1.954h2.9A.966.966,0,0,0,967.634,562.321Z" fill="url(#d)"/><path d="M956.023,563.3h2.9a.977.977,0,0,0,0-1.954h-2.9a.977.977,0,1,0,0,1.954Z" fill="url(#e)"/><path d="M987.006,563.3h2.9a.977.977,0,0,0,0-1.954h-2.9a.977.977,0,0,0,0,1.954Z" fill="url(#e)"/><path d="M982.165,561.344h-2.92a.977.977,0,0,0,0,1.954h2.92a.977.977,0,0,0,0-1.954Z" fill="url(#g)"/><path d="M997.655,561.344h-2.9a.977.977,0,0,0,0,1.954h2.9a.977.977,0,0,0,0-1.954Z" fill="url(#c)"/><path d="M970.306,581.146h5.3a1.938,1.938,0,0,0,1.94-1.924v-5.29a1.944,1.944,0,0,0-1.94-1.954h-5.3a1.932,1.932,0,0,0-1.925,1.954v5.29A1.926,1.926,0,0,0,970.306,581.146Zm0-7.214h5.3v5.29h-5.3Z" fill="url(#a)"/><path d="M958.048,571.978h-5.3a1.932,1.932,0,0,0-1.925,1.954v5.29a1.925,1.925,0,0,0,1.925,1.924h5.3a1.936,1.936,0,0,0,1.939-1.924v-5.29A1.942,1.942,0,0,0,958.048,571.978Zm-5.3,7.244v-5.29h5.3v5.29Z" fill="url(#a)"/><path d="M993.173,571.978h-5.3a1.932,1.932,0,0,0-1.925,1.954v5.29a1.925,1.925,0,0,0,1.925,1.924h5.3a1.938,1.938,0,0,0,1.939-1.924v-5.29A1.944,1.944,0,0,0,993.173,571.978Zm-5.3,7.244v-5.29h5.3v5.29Z" fill="url(#a)"/><path d="M958.048,590.574h-5.3a1.926,1.926,0,0,0-1.925,1.928v5.315a1.925,1.925,0,0,0,1.925,1.925h5.3a1.936,1.936,0,0,0,1.939-1.925V592.5A1.937,1.937,0,0,0,958.048,590.574Zm-5.3,7.243V592.5h5.3v5.315Z" fill="url(#a)"/><path d="M993.173,590.574h-5.3a1.926,1.926,0,0,0-1.925,1.928v5.315a1.925,1.925,0,0,0,1.925,1.925h5.3a1.938,1.938,0,0,0,1.939-1.925V592.5A1.938,1.938,0,0,0,993.173,590.574Zm-5.3,7.243V592.5h5.3v5.315Z" fill="url(#a)"/><path d="M978.93,588.563l1.177-2.272a.971.971,0,0,0-1.724-.892l-1.048,2.043a8.135,8.135,0,0,0-3.894-1.007h-.963a8.257,8.257,0,0,0-8.235,8.25v.948a8.256,8.256,0,0,0,8.235,8.25h.963a8.256,8.256,0,0,0,8.235-8.25v-.948A8.165,8.165,0,0,0,978.93,588.563Zm.8,7.07a6.293,6.293,0,0,1-6.293,6.3h-.963a6.3,6.3,0,0,1-6.3-6.3v-.948a6.3,6.3,0,0,1,6.3-6.295h.963a6.208,6.208,0,0,1,3,.747l-3.579,6.841-2.269-3.506a.971.971,0,1,0-1.625,1.063l3.176,4.886a.958.958,0,0,0,.821.459h.041a1.021,1.021,0,0,0,.807-.515L978,590.344a6.234,6.234,0,0,1,1.737,4.341Z" fill="url(#a)"/></g></svg>