<svg xmlns="http://www.w3.org/2000/svg" xmlns:xlink="http://www.w3.org/1999/xlink" width="47.87" height="68.654" viewBox="0 0 47.87 68.654"><defs><linearGradient id="a" y1="0.5" x2="1" y2="0.5" gradientUnits="objectBoundingBox"><stop offset="0" stop-color="#009dfc"/><stop offset="1" stop-color="#2af497"/></linearGradient><linearGradient id="c" x1="0" y1="0.5" x2="1" y2="0.5" xlink:href="#a"/><linearGradient id="d" x1="0" y1="0.5" x2="1" y2="0.5" xlink:href="#a"/><linearGradient id="e" x1="0" y1="0.5" x2="1" y2="0.5" xlink:href="#a"/><linearGradient id="f" x1="0" y1="0.5" x2="1" y2="0.5" xlink:href="#a"/><linearGradient id="g" x1="0" y1="0.5" x2="1" y2="0.5" xlink:href="#a"/><linearGradient id="h" x1="0" y1="0.5" x2="1" y2="0.5" xlink:href="#a"/><linearGradient id="i" x1="0" y1="0.5" x2="1" y2="0.5" xlink:href="#a"/><linearGradient id="k" x1="0" y1="0.5" x2="1" y2="0.5" xlink:href="#a"/><linearGradient id="l" x1="0" y1="0.5" x2="1" y2="0.5" xlink:href="#a"/><linearGradient id="m" x1="0" y1="0.5" x2="1" y2="0.5" xlink:href="#a"/><linearGradient id="n" x1="0" y1="0.5" x2="1" y2="0.5" xlink:href="#a"/><linearGradient id="o" x1="0" y1="0.5" x2="1" y2="0.5" xlink:href="#a"/></defs><g transform="translate(-730.529 -545.757)"><path d="M772.223,545.757H736.705a6.169,6.169,0,0,0-6.176,6.148v56.33a6.2,6.2,0,0,0,6.176,6.176h35.518a6.2,6.2,0,0,0,6.176-6.176v-56.33A6.168,6.168,0,0,0,772.223,545.757Zm-35.518,2.071h35.518a4.086,4.086,0,0,1,4.092,4.077v4.228h-43.7v-4.228A4.086,4.086,0,0,1,736.705,547.828Zm39.61,54.107h-43.7v-43.7h43.7Zm-4.092,10.408H736.705a4.112,4.112,0,0,1-4.092-4.108V604h43.7v4.232A4.112,4.112,0,0,1,772.223,612.343Z" fill="url(#a)"/><path d="M749.26,553.015h10.408a1.035,1.035,0,0,0,0-2.069H749.26a1.035,1.035,0,0,0,0,2.069Z" fill="url(#a)"/><path d="M744.055,607.125a1.05,1.05,0,1,0,1.053,1.05A1.038,1.038,0,0,0,744.055,607.125Z" fill="url(#c)"/><path d="M764.873,607.125a1.05,1.05,0,1,0,1.035,1.05A1.042,1.042,0,0,0,764.873,607.125Z" fill="url(#d)"/><path d="M754.463,607.125a1.05,1.05,0,0,0,0,2.1,1.05,1.05,0,1,0,0-2.1Z" fill="url(#e)"/><path d="M764.269,553.015A1.035,1.035,0,1,0,763.235,552,1.029,1.029,0,0,0,764.269,553.015Z" fill="url(#f)"/><path d="M741.568,585.035h3.768a.536.536,0,1,0,0-1.071h-3.768a.535.535,0,0,0,0,1.071Z" fill="url(#g)"/><path d="M756.663,588.2h-1.615a.544.544,0,0,0,0,1.088h1.615a.544.544,0,0,0,0-1.088Z" fill="url(#h)"/><path d="M749.648,588.2h-8.08a.544.544,0,0,0,0,1.088h8.08a.544.544,0,0,0,0-1.088Z" fill="url(#i)"/><path d="M770.094,570.637h-8.542v-6.719a2.151,2.151,0,0,0-2.153-2.145H738.832a2.153,2.153,0,0,0-2.159,2.145v9.535a2.152,2.152,0,0,0,2.159,2.144h8.536v4.111h-8.536a2.166,2.166,0,0,0-2.159,2.161v9.5a2.17,2.17,0,0,0,2.159,2.176h12.559l5.217,3.7a.594.594,0,0,0,.319.111.647.647,0,0,0,.241-.063.552.552,0,0,0,.295-.481v-3.263H759.4a2.168,2.168,0,0,0,2.153-2.176v-6.9h8.542a2.173,2.173,0,0,0,2.161-2.161V572.8A2.172,2.172,0,0,0,770.094,570.637Zm-32.341,2.816v-9.535a1.079,1.079,0,0,1,1.079-1.073H759.4a1.079,1.079,0,0,1,1.08,1.073v9.535a1.089,1.089,0,0,1-1.08,1.071h-2.472a.538.538,0,0,0-.544.529v2.767l-4.512-3.2a.527.527,0,0,0-.311-.1H738.832A1.088,1.088,0,0,1,737.753,573.453Zm22.726,17.919a1.082,1.082,0,0,1-1.08,1.088h-2.472a.54.54,0,0,0-.544.544v2.751l-4.512-3.2a.525.525,0,0,0-.311-.095H738.832a1.082,1.082,0,0,1-1.079-1.088v-9.5a1.092,1.092,0,0,1,1.079-1.088h8.536v1.535a2.167,2.167,0,0,0,2.161,2.161h1.935v3.263a.542.542,0,0,0,.288.48.74.74,0,0,0,.247.064.551.551,0,0,0,.313-.113l5.223-3.694h2.944Zm10.688-9.056a1.072,1.072,0,0,1-1.073,1.073H757.36a.529.529,0,0,0-.3.111l-4.518,3.2v-2.767a.549.549,0,0,0-.538-.544h-2.47a1.08,1.08,0,0,1-1.082-1.073V575.6h2.944l5.217,3.711a.577.577,0,0,0,.319.1.443.443,0,0,0,.241-.064.533.533,0,0,0,.295-.48V575.6H759.4a2.151,2.151,0,0,0,2.153-2.144v-1.729h8.542a1.072,1.072,0,0,1,1.073,1.073Z" fill="url(#a)"/><path d="M767.358,574.893h-3.774a.537.537,0,0,0-.536.544.548.548,0,0,0,.536.544h3.774a.549.549,0,0,0,.538-.544A.538.538,0,0,0,767.358,574.893Z" fill="url(#k)"/><path d="M753.88,579.149h-1.615a.536.536,0,1,0,0,1.072h1.615a.536.536,0,1,0,0-1.072Z" fill="url(#l)"/><path d="M765.2,579.149h-5.927a.536.536,0,0,0,0,1.072H765.2a.536.536,0,1,0,0-1.072Z" fill="url(#m)"/><path d="M749.657,567.1h7.006a.537.537,0,0,0,.536-.544.547.547,0,0,0-.536-.544h-7.006a.554.554,0,0,0-.544.544A.543.543,0,0,0,749.657,567.1Z" fill="url(#n)"/><path d="M741.568,567.1h4.848a.538.538,0,0,0,.544-.544.549.549,0,0,0-.544-.544h-4.848a.548.548,0,0,0-.535.544A.537.537,0,0,0,741.568,567.1Z" fill="url(#o)"/><path d="M753.425,570.813a.538.538,0,0,0-.538-.543H741.568a.537.537,0,0,0-.535.543.524.524,0,0,0,.535.528h11.319A.525.525,0,0,0,753.425,570.813Z" fill="url(#m)"/></g></svg>