<svg xmlns="http://www.w3.org/2000/svg" xmlns:xlink="http://www.w3.org/1999/xlink" width="70.422" height="68" viewBox="0 0 70.422 68"><defs><linearGradient id="a" y1="0.5" x2="1" y2="0.5" gradientUnits="objectBoundingBox"><stop offset="0" stop-color="#009dfc"/><stop offset="1" stop-color="#2af497"/></linearGradient><linearGradient id="d" x1="0" y1="0.5" x2="1" y2="0.5" xlink:href="#a"/><linearGradient id="e" x1="0" y1="0.5" x2="1" y2="0.5" xlink:href="#a"/><linearGradient id="g" x1="0" y1="0.5" x2="1" y2="0.5" xlink:href="#a"/></defs><g transform="translate(-500.759 -546.084)"><path d="M558.653,552.23H513.3a1.036,1.036,0,0,0-1.06,1.044v23.85a1.061,1.061,0,1,0,2.121,0V554.351h43.215v22.773a1.071,1.071,0,1,0,2.141,0v-23.85A1.04,1.04,0,0,0,558.653,552.23Z" fill="url(#a)"/><path d="M571.181,606.579a1.074,1.074,0,0,0-.065-.318.233.233,0,0,1-.032-.094.2.2,0,0,1-.013-.065l-5.306-9.531V550.615a4.525,4.525,0,0,0-4.514-4.531H510.7a4.538,4.538,0,0,0-4.527,4.531v45.956L500.9,606.1c-.016,0-.016.033-.032.065a.209.209,0,0,0-.033.094,1.2,1.2,0,0,0-.077.347h0v3.2a4.288,4.288,0,0,0,4.274,4.275H566.92a4.275,4.275,0,0,0,4.261-4.275v-3.23Zm-62.869-55.964a2.4,2.4,0,0,1,2.39-2.407h50.549a2.4,2.4,0,0,1,2.393,2.407v45.164H508.312Zm-.444,47.285h56.2l4.245,7.664H503.642Zm61.189,11.909a2.133,2.133,0,0,1-2.137,2.121H505.033a2.125,2.125,0,0,1-2.137-2.121v-2.124h66.161Z" fill="url(#a)"/><path d="M554.917,582.1h-3.231V564.963a5.3,5.3,0,0,0-5.289-5.29H525.543a5.3,5.3,0,0,0-5.29,5.29V582.1h-3.217a4.8,4.8,0,0,0,0,9.6h37.881a4.8,4.8,0,1,0,0-9.6Zm-40.556,4.781a2.679,2.679,0,0,1,2.675-2.66h3.217v5.352h-3.217A2.686,2.686,0,0,1,514.361,586.877Zm8.03,2.692V564.963a3.154,3.154,0,0,1,3.152-3.137h10.515v27.743Zm15.8,0V561.826h5.494v27.743Zm7.631,0V561.826h.571a3.157,3.157,0,0,1,3.152,3.137v24.606Zm9.091,0h-3.231v-5.352h3.231a2.676,2.676,0,0,1,0,5.352Z" fill="url(#a)"/><path d="M532,576.048a1.086,1.086,0,0,0-1.077,1.076,1.069,1.069,0,1,0,2.137,0A1.086,1.086,0,0,0,532,576.048Z" fill="url(#d)"/><path d="M531.241,580.257a1.108,1.108,0,0,0-.314.763,1.037,1.037,0,0,0,.314.758.983.983,0,0,0,.763.318.958.958,0,0,0,.742-.318,1.025,1.025,0,0,0,.318-.758.967.967,0,0,0-.318-.73A1.1,1.1,0,0,0,531.241,580.257Z" fill="url(#e)"/><path d="M533.064,565.5a1.069,1.069,0,1,0-2.137,0v7.725a.932.932,0,0,0,.061.318c.017.032.017.065.033.094a.788.788,0,0,0,.191.318c.013,0,.013,0,.029.032,0,0,.017,0,.033.033a1.119,1.119,0,0,0,.318.188l.045.032a1.331,1.331,0,0,0,.35.062.97.97,0,0,0,.315-.062c.032,0,.081,0,.1-.032.046,0,.078-.062.127-.062.078-.065.159-.1.22-.159a.764.764,0,0,0,.143-.223.357.357,0,0,0,.094-.127,1.087,1.087,0,0,0,.081-.412h0Z" fill="url(#d)"/><path d="M526.714,564.424a1.063,1.063,0,0,0-1.061,1.077v17.64a1.061,1.061,0,1,0,2.121,0V565.5A1.062,1.062,0,0,0,526.714,564.424Z" fill="url(#g)"/></g></svg>