<svg xmlns="http://www.w3.org/2000/svg" xmlns:xlink="http://www.w3.org/1999/xlink" viewBox="0 0 71.6 71.59"><defs><style>.cls-1{fill:url(#linear-gradient);}</style><linearGradient id="linear-gradient" y1="35.79" x2="71.6" y2="35.79" gradientUnits="userSpaceOnUse"><stop offset="0" stop-color="#009dfc"/><stop offset="1" stop-color="#2af497"/></linearGradient></defs><g id="Layer_2" data-name="Layer 2"><g id="Form_DK_Tai_Brochure_HOM" data-name="Form DK Tai Brochure HOM"><path class="cls-1" d="M71.6,17.81a1.78,1.78,0,0,0-.07-.39l0-.06a.33.33,0,0,0-.11-.16L64.55,8.28V5.41A5.42,5.42,0,0,0,59.13,0H12.48A5.42,5.42,0,0,0,7.05,5.41V8.28L.22,17.2a.55.55,0,0,0-.11.16s0,0,0,.06a1.8,1.8,0,0,0-.08.39v0a6.72,6.72,0,0,0,6.88,6.51h.17V53.13a5.45,5.45,0,0,0,5.43,5.45h16.3L27.89,65a27.9,27.9,0,0,0-10.1,4.63,1.14,1.14,0,0,0-.39,1.23,1.13,1.13,0,0,0,1,.74H53.17a1.08,1.08,0,0,0,1-.74,1.14,1.14,0,0,0-.39-1.23A27.78,27.78,0,0,0,43.72,65l-.89-6.41h16.3a5.44,5.44,0,0,0,5.42-5.45V24.35h.18a6.71,6.71,0,0,0,6.87-6.51ZM53.31,8.66l3.92,8.09h-9l-2-8.09Zm-9.3,0,2,8.09H36.89V8.66Zm-9.3,8.09H25.62l2-8.09h7.1Zm-11.33,0h-9l3.92-8.09h7.07ZM23,18.93a4.62,4.62,0,0,1-4.55,3.23,4.62,4.62,0,0,1-4.54-3.23Zm11.58,0a4.83,4.83,0,0,1-9.11,0Zm11.58,0a4.83,4.83,0,0,1-9.11,0Zm11.57,0a4.81,4.81,0,0,1-9.09,0Zm1.92-2.18L55.73,8.66h6.39l6.2,8.09ZM12.48,2.16H59.13a3.25,3.25,0,0,1,3.26,3.25v1.1H9.23V5.41A3.24,3.24,0,0,1,12.48,2.16Zm-3,6.5h6.41L12,16.75H3.28ZM2.32,18.93h9.1a4.62,4.62,0,0,1-4.54,3.23A4.65,4.65,0,0,1,2.32,18.93Zm19.85,50.5a30.14,30.14,0,0,1,27.28,0Zm19.29-4.9a33.61,33.61,0,0,0-11.32,0l.82-6h9.68Zm17.67-8.14H12.48a3.24,3.24,0,0,1-3.25-3.26H62.39A3.25,3.25,0,0,1,59.13,56.39Zm-32.45-7a1.63,1.63,0,0,1,3.25,0,1.63,1.63,0,1,1-3.25,0Zm14.33,0a1.63,1.63,0,0,1,3.25,0,1.63,1.63,0,1,1-3.25,0Zm4.37-13.5H25.78l-.85-3.25H46.07ZM44.92,38l-.67,3.26h-17L26.36,38ZM62.39,51H46.05a3.74,3.74,0,0,0,.39-1.64,3.79,3.79,0,0,0-1.11-2.65l.87-4.12h0l2.25-10.85h0l.11-.48a3.91,3.91,0,0,1,3.82-3.12,1.08,1.08,0,1,0,0-2.16,6.07,6.07,0,0,0-5.83,4.47h-23a1.16,1.16,0,0,0-.88.42,1.08,1.08,0,0,0-.17.94l2.85,10.85a1.07,1.07,0,0,0,1,.8H43.8l-.47,2.19a2.67,2.67,0,0,0-.69-.09,3.82,3.82,0,0,0-3.8,3.8A3.61,3.61,0,0,0,39.23,51H31.72a3.74,3.74,0,0,0,.39-1.64,3.8,3.8,0,1,0-7.6,0A3.73,3.73,0,0,0,24.89,51H9.23v-27a6.84,6.84,0,0,0,3.43-2.61,7,7,0,0,0,11.57,0,7,7,0,0,0,11.58,0c1.21,1.8,10.35,1.8,11.58,0a7,7,0,0,0,5.79,3,7,7,0,0,0,5.77-3,6.69,6.69,0,0,0,3.44,2.58Zm2.34-28.82a4.62,4.62,0,0,1-4.54-3.23h9.1A4.64,4.64,0,0,1,64.73,22.16Z"/></g></g></svg>