<svg xmlns="http://www.w3.org/2000/svg" xmlns:xlink="http://www.w3.org/1999/xlink" viewBox="0 0 47.87 68.65"><defs><style>.cls-1{fill:url(#linear-gradient);}.cls-2{fill:url(#linear-gradient-2);}.cls-3{fill:url(#linear-gradient-3);}.cls-4{fill:url(#linear-gradient-4);}.cls-5{fill:url(#linear-gradient-5);}.cls-6{fill:url(#linear-gradient-6);}.cls-7{fill:url(#linear-gradient-7);}.cls-8{fill:url(#linear-gradient-8);}.cls-9{fill:url(#linear-gradient-9);}.cls-10{fill:url(#linear-gradient-10);}.cls-11{fill:url(#linear-gradient-11);}.cls-12{fill:url(#linear-gradient-12);}.cls-13{fill:url(#linear-gradient-13);}.cls-14{fill:url(#linear-gradient-14);}.cls-15{fill:url(#linear-gradient-15);}.cls-16{fill:url(#linear-gradient-16);}</style><linearGradient id="linear-gradient" y1="34.33" x2="47.87" y2="34.33" gradientUnits="userSpaceOnUse"><stop offset="0" stop-color="#009dfc"/><stop offset="1" stop-color="#2af497"/></linearGradient><linearGradient id="linear-gradient-2" x1="17.7" y1="6.22" x2="30.17" y2="6.22" xlink:href="#linear-gradient"/><linearGradient id="linear-gradient-3" x1="12.49" y1="62.42" x2="14.58" y2="62.42" xlink:href="#linear-gradient"/><linearGradient id="linear-gradient-4" x1="33.29" y1="62.42" x2="35.38" y2="62.42" xlink:href="#linear-gradient"/><linearGradient id="linear-gradient-5" x1="22.9" y1="62.42" x2="24.99" y2="62.42" xlink:href="#linear-gradient"/><linearGradient id="linear-gradient-6" x1="32.71" y1="6.22" x2="34.77" y2="6.22" xlink:href="#linear-gradient"/><linearGradient id="linear-gradient-7" x1="10.5" y1="38.74" x2="15.35" y2="38.74" xlink:href="#linear-gradient"/><linearGradient id="linear-gradient-8" x1="23.98" y1="42.99" x2="26.67" y2="42.99" xlink:href="#linear-gradient"/><linearGradient id="linear-gradient-9" x1="10.5" y1="42.99" x2="19.66" y2="42.99" xlink:href="#linear-gradient"/><linearGradient id="linear-gradient-10" x1="6.14" y1="33.81" x2="41.73" y2="33.81" xlink:href="#linear-gradient"/><linearGradient id="linear-gradient-11" x1="32.52" y1="29.68" x2="37.37" y2="29.68" xlink:href="#linear-gradient"/><linearGradient id="linear-gradient-12" x1="21.2" y1="33.93" x2="23.89" y2="33.93" xlink:href="#linear-gradient"/><linearGradient id="linear-gradient-13" x1="28.21" y1="33.93" x2="35.21" y2="33.93" xlink:href="#linear-gradient"/><linearGradient id="linear-gradient-14" x1="18.58" y1="20.8" x2="26.67" y2="20.8" xlink:href="#linear-gradient"/><linearGradient id="linear-gradient-15" x1="10.5" y1="20.8" x2="16.43" y2="20.8" xlink:href="#linear-gradient"/><linearGradient id="linear-gradient-16" x1="10.5" y1="25.05" x2="22.9" y2="25.05" xlink:href="#linear-gradient"/></defs><g id="Layer_2" data-name="Layer 2"><g id="Form_DK_Tai_Brochure_HOM" data-name="Form DK Tai Brochure HOM"><path class="cls-1" d="M41.69,0H6.18A6.17,6.17,0,0,0,0,6.15V62.48a6.19,6.19,0,0,0,6.18,6.17H41.69a6.19,6.19,0,0,0,6.18-6.17V6.15A6.17,6.17,0,0,0,41.69,0ZM6.18,2.07H41.69a4.09,4.09,0,0,1,4.1,4.08v4.23H2.08V6.15A4.09,4.09,0,0,1,6.18,2.07ZM45.79,56.18H2.08V12.48H45.79Zm-4.1,10.41H6.18a4.12,4.12,0,0,1-4.1-4.11V58.25H45.79v4.23A4.12,4.12,0,0,1,41.69,66.59Z"/><path class="cls-2" d="M18.73,7.26H29.14a1,1,0,0,0,0-2.07H18.73a1,1,0,0,0,0,2.07Z"/><path class="cls-3" d="M13.53,61.37a1.05,1.05,0,1,0,1.05,1.05A1,1,0,0,0,13.53,61.37Z"/><path class="cls-4" d="M34.34,61.37a1.05,1.05,0,1,0,1,1.05A1,1,0,0,0,34.34,61.37Z"/><path class="cls-5" d="M23.93,61.37a1.05,1.05,0,0,0,0,2.1,1.05,1.05,0,1,0,0-2.1Z"/><path class="cls-6" d="M33.74,7.26a1,1,0,1,0-1-1A1,1,0,0,0,33.74,7.26Z"/><path class="cls-7" d="M11,39.28h3.77a.55.55,0,0,0,.54-.55.54.54,0,0,0-.54-.52H11a.53.53,0,0,0-.54.52A.54.54,0,0,0,11,39.28Z"/><path class="cls-8" d="M26.13,42.45H24.52A.54.54,0,0,0,24,43a.55.55,0,0,0,.54.55h1.61a.55.55,0,0,0,.54-.55A.54.54,0,0,0,26.13,42.45Z"/><path class="cls-9" d="M19.12,42.45H11a.54.54,0,0,0-.54.54.55.55,0,0,0,.54.55h8.08a.55.55,0,0,0,.54-.55A.54.54,0,0,0,19.12,42.45Z"/><path class="cls-10" d="M39.57,24.88H31V18.16A2.14,2.14,0,0,0,28.87,16H8.3a2.15,2.15,0,0,0-2.16,2.14V27.7A2.15,2.15,0,0,0,8.3,29.84h8.54V34H8.3a2.17,2.17,0,0,0-2.16,2.16v9.51A2.17,2.17,0,0,0,8.3,47.79H20.86l5.22,3.7a.65.65,0,0,0,.32.11.51.51,0,0,0,.24-.07.54.54,0,0,0,.29-.48V47.79h1.94A2.16,2.16,0,0,0,31,45.62v-6.9h8.55a2.18,2.18,0,0,0,2.16-2.16V27A2.18,2.18,0,0,0,39.57,24.88ZM7.22,27.7V18.16A1.08,1.08,0,0,1,8.3,17.09H28.87A1.08,1.08,0,0,1,30,18.16V27.7a1.09,1.09,0,0,1-1.08,1.07H26.4a.54.54,0,0,0-.55.53v2.76l-4.51-3.2a.54.54,0,0,0-.31-.09H8.3A1.09,1.09,0,0,1,7.22,27.7ZM30,45.62a1.08,1.08,0,0,1-1.08,1.08H26.4a.55.55,0,0,0-.55.55V50l-4.51-3.2a.48.48,0,0,0-.31-.1H8.3a1.08,1.08,0,0,1-1.08-1.08V36.11A1.1,1.1,0,0,1,8.3,35h8.54v1.54A2.17,2.17,0,0,0,19,38.72h1.93V42a.54.54,0,0,0,.29.48.78.78,0,0,0,.25.07.52.52,0,0,0,.31-.12L27,38.72H30Zm10.69-9.06a1.07,1.07,0,0,1-1.07,1.07H26.83a.52.52,0,0,0-.3.11L22,40.94V38.18a.55.55,0,0,0-.54-.55H19a1.08,1.08,0,0,1-1.08-1.07V29.84h2.94l5.22,3.71a.55.55,0,0,0,.32.1.42.42,0,0,0,.24-.07.53.53,0,0,0,.29-.48V29.84h1.94A2.14,2.14,0,0,0,31,27.7V26h8.55A1.07,1.07,0,0,1,40.64,27Z"/><path class="cls-11" d="M36.83,29.14H33.05a.54.54,0,0,0-.53.54.54.54,0,0,0,.53.54h3.78a.54.54,0,0,0,.54-.54A.54.54,0,0,0,36.83,29.14Z"/><path class="cls-12" d="M23.35,33.39H21.74a.54.54,0,1,0,0,1.07h1.61a.54.54,0,1,0,0-1.07Z"/><path class="cls-13" d="M34.67,33.39H28.74a.54.54,0,0,0,0,1.07h5.93a.54.54,0,1,0,0-1.07Z"/><path class="cls-14" d="M19.13,21.34h7a.53.53,0,0,0,.54-.54.54.54,0,0,0-.54-.54h-7a.55.55,0,0,0-.55.54A.54.54,0,0,0,19.13,21.34Z"/><path class="cls-15" d="M11,21.34h4.85a.53.53,0,0,0,.54-.54.54.54,0,0,0-.54-.54H11a.54.54,0,0,0-.54.54A.53.53,0,0,0,11,21.34Z"/><path class="cls-16" d="M22.9,25.06a.55.55,0,0,0-.54-.55H11a.54.54,0,0,0-.54.55.52.52,0,0,0,.54.52H22.36A.53.53,0,0,0,22.9,25.06Z"/></g></g></svg>