<svg xmlns="http://www.w3.org/2000/svg" xmlns:xlink="http://www.w3.org/1999/xlink" viewBox="0 0 70.42 68"><defs><style>.cls-1{fill:url(#linear-gradient);}.cls-2{fill:url(#linear-gradient-2);}.cls-3{fill:url(#linear-gradient-3);}.cls-4{fill:url(#linear-gradient-4);}.cls-5{fill:url(#linear-gradient-5);}.cls-6{fill:url(#linear-gradient-6);}.cls-7{fill:url(#linear-gradient-7);}</style><linearGradient id="linear-gradient" x1="11.48" y1="19.13" x2="58.96" y2="19.13" gradientUnits="userSpaceOnUse"><stop offset="0" stop-color="#009dfc"/><stop offset="1" stop-color="#2af497"/></linearGradient><linearGradient id="linear-gradient-2" x1="0" y1="34" x2="70.42" y2="34" xlink:href="#linear-gradient"/><linearGradient id="linear-gradient-3" x1="11.48" y1="29.6" x2="58.96" y2="29.6" xlink:href="#linear-gradient"/><linearGradient id="linear-gradient-4" x1="30.17" y1="31.04" x2="32.31" y2="31.04" xlink:href="#linear-gradient"/><linearGradient id="linear-gradient-5" x1="30.17" y1="34.95" x2="32.31" y2="34.95" xlink:href="#linear-gradient"/><linearGradient id="linear-gradient-6" x1="30.17" y1="23.28" x2="32.31" y2="23.28" xlink:href="#linear-gradient"/><linearGradient id="linear-gradient-7" x1="24.89" y1="28.24" x2="27.02" y2="28.24" xlink:href="#linear-gradient"/></defs><g id="Layer_2" data-name="Layer 2"><g id="Form_DK_Tai_Brochure_HOM" data-name="Form DK Tai Brochure HOM"><path class="cls-1" d="M57.89,6.15H12.54a1,1,0,0,0-1.06,1V31a1.06,1.06,0,1,0,2.12,0V8.27H56.82V31A1.07,1.07,0,1,0,59,31V7.19A1,1,0,0,0,57.89,6.15Z"/><path class="cls-2" d="M70.42,60.5a1.13,1.13,0,0,0-.06-.32.22.22,0,0,1,0-.1.12.12,0,0,1,0-.06L65,50.49v-46A4.53,4.53,0,0,0,60.49,0H9.94A4.54,4.54,0,0,0,5.42,4.53v46L.14,60s0,0,0,.06a.17.17,0,0,0,0,.1,1.13,1.13,0,0,0-.08.34H0v3.21A4.29,4.29,0,0,0,4.27,68H66.16a4.27,4.27,0,0,0,4.26-4.27V60.5ZM7.55,4.53A2.41,2.41,0,0,1,9.94,2.12H60.49a2.41,2.41,0,0,1,2.4,2.41V49.7H7.55ZM7.11,51.82h56.2l4.25,7.66H2.88ZM68.3,63.73a2.13,2.13,0,0,1-2.14,2.12H4.27a2.12,2.12,0,0,1-2.13-2.12V61.6H68.3Z"/><path class="cls-3" d="M54.16,36H50.93V18.88a5.3,5.3,0,0,0-5.29-5.29H24.78a5.3,5.3,0,0,0-5.29,5.29V36H16.28a4.8,4.8,0,1,0,0,9.6H54.16a4.8,4.8,0,1,0,0-9.6ZM13.6,40.79a2.69,2.69,0,0,1,2.68-2.66h3.21v5.35H16.28A2.69,2.69,0,0,1,13.6,40.79Zm8,2.69V18.88a3.16,3.16,0,0,1,3.15-3.14H35.3V43.48Zm15.81,0V15.74h5.49V43.48Zm7.63,0V15.74h.57a3.16,3.16,0,0,1,3.15,3.14v24.6Zm9.09,0H50.93V38.13h3.23a2.68,2.68,0,0,1,0,5.35Z"/><path class="cls-4" d="M31.24,30A1.09,1.09,0,0,0,30.17,31a1.07,1.07,0,1,0,2.14,0A1.09,1.09,0,0,0,31.24,30Z"/><path class="cls-5" d="M30.48,34.17a1.14,1.14,0,0,0-.31.77,1,1,0,0,0,.31.75,1.05,1.05,0,0,0,1.51,0,1,1,0,0,0,.32-.75,1,1,0,0,0-.32-.73A1.1,1.1,0,0,0,30.48,34.17Z"/><path class="cls-6" d="M32.31,19.42a1.07,1.07,0,1,0-2.14,0v7.72a1,1,0,0,0,.06.32.32.32,0,0,1,0,.09.74.74,0,0,0,.19.32s0,0,0,0,0,0,0,0a1.05,1.05,0,0,0,.31.18l.05,0a1.43,1.43,0,0,0,.35.06,1,1,0,0,0,.31-.06s.08,0,.1,0,.08-.06.13-.06A1.77,1.77,0,0,0,32,27.9a.76.76,0,0,0,.14-.22.27.27,0,0,0,.09-.13,1,1,0,0,0,.09-.41h0Z"/><path class="cls-7" d="M26,18.34a1.07,1.07,0,0,0-1.07,1.08V37.06a1.07,1.07,0,1,0,2.13,0V19.42A1.07,1.07,0,0,0,26,18.34Z"/></g></g></svg>