<svg xmlns="http://www.w3.org/2000/svg" viewBox="0 0 177.6 177.6"><defs><style>.cls-1{opacity:0.1;}.cls-2{fill:#e4314b;}.cls-3{fill:#343846;}</style></defs><title>decor</title><g id="Layer_2" data-name="Layer 2"><g id="Body"><g class="cls-1"><path class="cls-2" d="M90.2,120.8a1.6,1.6,0,0,0-1.5-1.3,1.5,1.5,0,0,0-1.5,1.5,1.5,1.5,0,0,0,1,1.5h.5l.6-.2a1.5,1.5,0,0,0,.9-1.1v-.5Z"/><path class="cls-3" d="M81.7,140.7a.6.6,0,0,0,.6-.5V121.4l6.4-10.3,6.5,10.3v18.8a.5.5,0,0,0,1,0V121.1l-7-11.2a.6.6,0,0,0-1,0l-6.9,11.2c-.1,0-.1.1-.1.2v18.9A.5.5,0,0,0,81.7,140.7Z"/><path class="cls-3" d="M88.7,140.7a.6.6,0,0,0,.6-.5V122.4l-.6.2h-.5v17.7A.5.5,0,0,0,88.7,140.7Z"/><path class="cls-3" d="M88.7,159.7a.5.5,0,0,0-.5.4v17a.5.5,0,0,0,.5.5.6.6,0,0,0,.6-.5v-17C89.3,159.9,89,159.7,88.7,159.7Z"/><path class="cls-3" d="M84.1,159.7c-.3,0-.6.2-.6.4v12.6c0,.2.3.4.6.4a.5.5,0,0,0,.5-.4V160.1A.5.5,0,0,0,84.1,159.7Z"/><path class="cls-3" d="M93.5,159.7a.5.5,0,0,0-.5.4v12.6a.5.5,0,0,0,.5.4c.3,0,.6-.2.6-.4V160.1C94.1,159.9,93.8,159.7,93.5,159.7Z"/><path class="cls-3" d="M101.2,158.4h-1.1V141.1c0-.2-.1-.3-.3-.4a.6.6,0,0,0-.6.1l-10.5,8.6-10.5-8.6a.4.4,0,0,0-.5-.1c-.2.1-.4.2-.4.4v17.3H76.2c-.2,0-.4.3-.4.5a.5.5,0,0,0,.4.5h1.9a.5.5,0,0,0,.3-.5V142.2l9.9,8.2a.6.6,0,0,0,.8,0l9.9-8.2v16.7a.5.5,0,0,0,.2.4h2a.5.5,0,0,0,.4-.5C101.6,158.7,101.4,158.4,101.2,158.4Z"/><path class="cls-2" d="M112.4,110.4a1.5,1.5,0,0,0-1.9.2,1.5,1.5,0,0,0,0,2.1,1.4,1.4,0,0,0,1.7.3.5.5,0,0,0,.4-.3l.3-.4a1.6,1.6,0,0,0-.1-1.5c-.1-.1-.1-.2-.2-.2Z"/><path class="cls-3" d="M120.5,130.4a.5.5,0,0,0,0-.7l-13.2-13.2-2.8-11.9,11.9,2.8,13.2,13.2a.5.5,0,0,0,.7,0c.3-.2.3-.6.1-.7L117,106.5h-.2l-12.8-3c-.2,0-.4,0-.5.2s-.2.3-.2.5l3,12.8v.2l13.4,13.4C119.9,130.7,120.3,130.6,120.5,130.4Z"/><path class="cls-3" d="M125.4,125.5a.6.6,0,0,0,.1-.7l-12.6-12.5-.3.4a.5.5,0,0,1-.4.3l12.5,12.6A.6.6,0,0,0,125.4,125.5Z"/><path class="cls-3" d="M138.9,139a.4.4,0,0,0-.1.7l12,12a.6.6,0,0,0,.8-.8l-12-12A.4.4,0,0,0,138.9,139Z"/><path class="cls-3" d="M135.6,142.2c-.2.3-.3.6-.1.8l8.9,8.8a.5.5,0,0,0,.7,0c.2-.2.2-.6,0-.7l-8.8-8.9A.5.5,0,0,0,135.6,142.2Z"/><path class="cls-3" d="M142.3,135.5c-.3.3-.3.6-.1.8l8.9,8.8a.5.5,0,0,0,.7,0c.2-.2.2-.6,0-.7l-8.8-8.9A.5.5,0,0,0,142.3,135.5Z"/><path class="cls-3" d="M146.8,129.3l-.8.7-12.2-12.2c-.1-.1-.4-.2-.5-.1a.7.7,0,0,0-.4.5l-1.3,13.5L118.1,133a.9.9,0,0,0-.5.3.6.6,0,0,0,.1.6l12.2,12.2-.8.8a.5.5,0,0,0,.1.6c.2.2.5.3.6.1l1.2-1.2h.1v-.2a.5.5,0,0,0,0-.5l-11.9-11.8,12.8-1.3a.5.5,0,0,0,.5-.5l1.3-12.8,11.8,11.8a.4.4,0,0,0,.4.2h.3l1.2-1.2a.5.5,0,0,0-.1-.6C147.2,129.2,147,129.1,146.8,129.3Z"/><path class="cls-2" d="M120.8,87.4a1.5,1.5,0,0,0-1.3,1.5,1.6,1.6,0,0,0,3,.5c0-.2.1-.3.1-.5a1.4,1.4,0,0,0-.2-.6,1.3,1.3,0,0,0-1.1-.9h-.5Z"/><path class="cls-3" d="M140.7,95.8a.5.5,0,0,0-.5-.5H121.4l-10.3-6.4,10.3-6.5h18.8a.5.5,0,0,0,.5-.5.6.6,0,0,0-.5-.6H121.1l-11.2,7a.5.5,0,0,0-.3.5.5.5,0,0,0,.3.4l11.2,7h19.1A.6.6,0,0,0,140.7,95.8Z"/><path class="cls-3" d="M140.7,88.9a.6.6,0,0,0-.5-.6H122.4a1.4,1.4,0,0,1,.2.6c0,.2-.1.3-.1.5h17.7A.6.6,0,0,0,140.7,88.9Z"/><path class="cls-3" d="M159.7,88.9c0,.2.2.5.4.5h17a.5.5,0,0,0,.5-.5.6.6,0,0,0-.5-.6h-17C159.9,88.3,159.7,88.6,159.7,88.9Z"/><path class="cls-3" d="M159.7,93.5a.5.5,0,0,0,.4.5h12.6a.5.5,0,0,0,0-1H160.1A.5.5,0,0,0,159.7,93.5Z"/><path class="cls-3" d="M159.7,84c0,.3.2.6.4.6h12.6c.2,0,.4-.3.4-.6a.5.5,0,0,0-.4-.5H160.1A.5.5,0,0,0,159.7,84Z"/><path class="cls-3" d="M158.4,76.4v1.1H141.1c-.2,0-.3.1-.4.3a.7.7,0,0,0,.1.6l8.6,10.5-8.6,10.4a.7.7,0,0,0-.1.6c.1.2.2.3.4.3h17.3v1.2c0,.2.3.3.5.3s.5-.1.5-.3V99.7h0a.7.7,0,0,0-.5-.4H142.2l8.2-9.9a.5.5,0,0,0,0-.7l-8.2-9.9h16.7c.2,0,.3-.1.4-.3s.1-.1.1-.2h0V76.4a.5.5,0,0,0-.5-.4C158.7,76,158.4,76.2,158.4,76.4Z"/><path class="cls-2" d="M110.4,65.2a1.5,1.5,0,0,0,.2,1.9,1.5,1.5,0,0,0,2.1,0,1.4,1.4,0,0,0,.3-1.7c0-.2-.1-.3-.3-.4l-.4-.4a1.6,1.6,0,0,0-1.5.2l-.2.2Z"/><path class="cls-3" d="M130.4,57.1a.6.6,0,0,0-.7-.1L116.5,70.3,104.6,73l2.8-11.8,13.2-13.3c.2-.1.2-.5,0-.7s-.6-.2-.7,0L106.5,60.5a.3.3,0,0,1-.1.2l-3,12.9a.6.6,0,0,0,.2.5.4.4,0,0,0,.5.1l12.8-2.9h.2l13.4-13.4A.5.5,0,0,0,130.4,57.1Z"/><path class="cls-3" d="M125.5,52.2a.4.4,0,0,0-.7-.1L112.3,64.6l.4.4c.2.1.3.2.3.4l12.6-12.5A.6.6,0,0,0,125.5,52.2Z"/><path class="cls-3" d="M139,38.7a.6.6,0,0,0,.7.1l12-12a.6.6,0,0,0-.1-.7.4.4,0,0,0-.7-.1l-12,12A.4.4,0,0,0,139,38.7Z"/><path class="cls-3" d="M142.2,42a.6.6,0,0,0,.8,0l8.8-8.8a.5.5,0,0,0,0-.7c-.2-.2-.6-.3-.7-.1l-8.9,8.9A.5.5,0,0,0,142.2,42Z"/><path class="cls-3" d="M135.5,35.3a.6.6,0,0,0,.8,0l8.8-8.8a.5.5,0,0,0,0-.7c-.2-.2-.6-.3-.7-.1l-8.9,8.9A.5.5,0,0,0,135.5,35.3Z"/><path class="cls-3" d="M129.3,30.7l.7.8L117.8,43.8a.4.4,0,0,0-.1.5,1,1,0,0,0,.5.4L131.7,46,133,59.5a.4.4,0,0,0,.3.4.6.6,0,0,0,.6,0l12.2-12.3.8.8c.2.2.4.1.6-.1s.3-.4.1-.5l-1.2-1.2h-.2c-.1-.1-.4,0-.5.1L133.9,58.3l-1.3-12.8a.5.5,0,0,0-.5-.5l-12.8-1.2L131.1,32a.6.6,0,0,0,.2-.5v-.2h-.1l-1.2-1.1c-.1-.2-.4-.1-.6.1S129.1,30.6,129.3,30.7Z"/><path class="cls-2" d="M87.4,56.8A1.4,1.4,0,0,0,88.9,58a1.5,1.5,0,0,0,1.5-1.5,1.5,1.5,0,0,0-1-1.4H88.3a1.4,1.4,0,0,0-.9,1.2v.5Z"/><path class="cls-3" d="M95.8,36.9a.5.5,0,0,0-.5.5V56.1L88.9,66.5,82.4,56.1V37.4a.5.5,0,0,0-.5-.5.6.6,0,0,0-.6.5V56.3c0,.1.1.1.1.2l7,11.2.5.2.4-.2,7-11.2c0-.1.1-.1.1-.2V37.4A.6.6,0,0,0,95.8,36.9Z"/><path class="cls-3" d="M88.9,36.9a.6.6,0,0,0-.6.5V55.1h1.1V37.4A.5.5,0,0,0,88.9,36.9Z"/><path class="cls-3" d="M88.9,17.9a.5.5,0,0,0,.5-.5V.5a.5.5,0,0,0-.5-.5.6.6,0,0,0-.6.5V17.4A.6.6,0,0,0,88.9,17.9Z"/><path class="cls-3" d="M93.5,17.9a.5.5,0,0,0,.5-.5V4.9a.5.5,0,0,0-1,0V17.4A.5.5,0,0,0,93.5,17.9Z"/><path class="cls-3" d="M84,17.9a.6.6,0,0,0,.6-.5V4.9a.6.6,0,0,0-.6-.5.5.5,0,0,0-.5.5V17.4A.5.5,0,0,0,84,17.9Z"/><path class="cls-3" d="M76.4,19.1h1.1V36.4a.5.5,0,0,0,.3.5h.6l10.5-8.6,10.4,8.6a.7.7,0,0,0,.6.1.5.5,0,0,0,.3-.5V19.1h1.2c.2,0,.3-.2.3-.5s-.1-.4-.3-.4H99.5c-.2.1-.4.2-.4.4V35.3l-9.9-8.1a.5.5,0,0,0-.7,0l-9.9,8.1V18.6q0-.2-.3-.3c0-.1-.1-.1-.2-.1H76.4a.4.4,0,0,0-.4.4A.5.5,0,0,0,76.4,19.1Z"/><path class="cls-2" d="M65.2,67.2a1.5,1.5,0,0,0,1.9-.2,1.6,1.6,0,0,0,0-2.2,1.7,1.7,0,0,0-1.7-.3l-.4.3-.4.5a1.6,1.6,0,0,0,.2,1.5l.2.2Z"/><path class="cls-3" d="M57.1,47.1a.6.6,0,0,0-.1.7L70.3,61.1,73,72.9,61.2,70.2,47.9,56.9a.6.6,0,0,0-.7.1.5.5,0,0,0,0,.7L60.5,71.1h.2l12.9,2.9c.2.1.3,0,.5-.1s.2-.3.1-.5L71.3,60.6a.3.3,0,0,1-.1-.2L57.8,47.1A.5.5,0,0,0,57.1,47.1Z"/><path class="cls-3" d="M52.2,52.1a.4.4,0,0,0-.1.7L64.6,65.3l.4-.5.4-.3L52.9,52A.4.4,0,0,0,52.2,52.1Z"/><path class="cls-3" d="M38.7,38.6a.6.6,0,0,0,.1-.7l-12-12a.6.6,0,0,0-.8.8l12,12A.6.6,0,0,0,38.7,38.6Z"/><path class="cls-3" d="M42,35.3a.5.5,0,0,0,0-.7l-8.8-8.9a.6.6,0,0,0-.7.1.5.5,0,0,0-.1.7l8.9,8.9A.5.5,0,0,0,42,35.3Z"/><path class="cls-3" d="M35.3,42a.5.5,0,0,0,0-.7l-8.8-8.9a.6.6,0,0,0-.7.1.5.5,0,0,0-.1.7l8.9,8.9A.5.5,0,0,0,35.3,42Z"/><path class="cls-3" d="M30.7,48.3l.8-.8L43.8,59.8a.4.4,0,0,0,.5,0c.2,0,.3-.2.4-.4L46,45.9l13.5-1.3c.2-.1.4-.2.4-.4a.4.4,0,0,0,0-.5L47.6,31.4l.8-.8c.2-.1.1-.4-.1-.6a.3.3,0,0,0-.5-.1l-1.2,1.2h-.2a.7.7,0,0,0,.1.6L58.3,43.7,45.5,44.9a.6.6,0,0,0-.5.5L43.8,58.2,32,46.4h-.8l-1.1,1.1c-.2.2-.1.4.1.6S30.6,48.5,30.7,48.3Z"/><path class="cls-2" d="M56.8,90.2A1.5,1.5,0,0,0,58,88.7a1.4,1.4,0,0,0-1.5-1.5,1.5,1.5,0,0,0-1.4,1,.7.7,0,0,0-.1.5,1.3,1.3,0,0,0,.1.6,1.6,1.6,0,0,0,1.2.9h.5Z"/><path class="cls-3" d="M36.9,81.7a.6.6,0,0,0,.5.6H56.1l10.4,6.4L56.1,95.1H37.4a.5.5,0,1,0,0,1H56.5l11.2-7a.7.7,0,0,0,0-1L56.5,81.3H37.4A.5.5,0,0,0,36.9,81.7Z"/><path class="cls-3" d="M36.9,88.7a.6.6,0,0,0,.5.6H55.1a1.3,1.3,0,0,1-.1-.6.7.7,0,0,1,.1-.5H37.4A.5.5,0,0,0,36.9,88.7Z"/><path class="cls-3" d="M17.9,88.7a.5.5,0,0,0-.5-.5H.5a.5.5,0,0,0-.5.5.6.6,0,0,0,.5.6H17.4A.6.6,0,0,0,17.9,88.7Z"/><path class="cls-3" d="M17.9,84.1a.6.6,0,0,0-.5-.6H4.9a.6.6,0,0,0-.5.6.5.5,0,0,0,.5.5H17.4A.5.5,0,0,0,17.9,84.1Z"/><path class="cls-3" d="M17.9,93.5a.5.5,0,0,0-.5-.5H4.9a.5.5,0,0,0-.5.5.6.6,0,0,0,.5.6H17.4A.6.6,0,0,0,17.9,93.5Z"/><path class="cls-3" d="M19.1,101.2v-1.1H36.4a.5.5,0,0,0,.5-.3.6.6,0,0,0-.1-.6L28.2,88.7l8.6-10.5a.4.4,0,0,0,.1-.5.7.7,0,0,0-.5-.4H19.1V76.2a.5.5,0,0,0-.5-.4.4.4,0,0,0-.4.4v1.7h0c.1.2.2.3.4.3H35.3l-8.1,9.9a.6.6,0,0,0,0,.8L35.3,99H18.6l-.3.2a.3.3,0,0,0-.1.2h0v1.7a.4.4,0,0,0,.4.4A.5.5,0,0,0,19.1,101.2Z"/><path class="cls-2" d="M67.2,112.4a1.5,1.5,0,0,0-.2-1.9,1.6,1.6,0,0,0-2.2,0,1.7,1.7,0,0,0-.3,1.7l.3.4.5.3a1.6,1.6,0,0,0,1.5-.1l.2-.2Z"/><path class="cls-3" d="M47.1,120.5c.2.2.6.2.7,0l13.3-13.2,11.8-2.8-2.7,11.9L56.9,129.6a.6.6,0,0,0,.1.7.4.4,0,0,0,.7.1L71.1,117a.3.3,0,0,0,.1-.2L74.1,104a.4.4,0,0,0-.1-.5c-.1-.2-.3-.2-.5-.2l-12.9,3h-.2L47.1,119.8C46.9,119.9,46.9,120.3,47.1,120.5Z"/><path class="cls-3" d="M52.1,125.4a.6.6,0,0,0,.7.1l12.5-12.6-.5-.3-.3-.4L52,124.7A.4.4,0,0,0,52.1,125.4Z"/><path class="cls-3" d="M38.6,138.9a.4.4,0,0,0-.7-.1l-12,12a.4.4,0,0,0,.1.7.6.6,0,0,0,.7.1l12-12A.6.6,0,0,0,38.6,138.9Z"/><path class="cls-3" d="M35.3,135.6a.5.5,0,0,0-.7-.1l-8.9,8.9a.6.6,0,0,0,.1.7.5.5,0,0,0,.7,0l8.9-8.8A.5.5,0,0,0,35.3,135.6Z"/><path class="cls-3" d="M42,142.3a.4.4,0,0,0-.7-.1l-8.9,8.9a.6.6,0,0,0,.1.7.5.5,0,0,0,.7,0l8.9-8.8A.5.5,0,0,0,42,142.3Z"/><path class="cls-3" d="M48.3,146.8l-.8-.8,12.3-12.2a.5.5,0,0,0,0-.5.4.4,0,0,0-.4-.4l-13.5-1.3-1.3-13.5a1,1,0,0,0-.4-.5.4.4,0,0,0-.5.1L31.4,129.9l-.8-.8a.5.5,0,0,0-.7.7l1.2,1.2h.8l11.8-11.9L44.9,132a.5.5,0,0,0,.5.5l12.8,1.3L46.4,145.6a.6.6,0,0,0-.1.4c0,.1,0,.2.1.2h.1l1.1,1.2a.5.5,0,0,0,.6-.1C48.4,147.2,48.5,147,48.3,146.8Z"/><path class="cls-2" d="M77.7,118.8a1.5,1.5,0,0,0-.9-1.7,1.5,1.5,0,0,0-2,.8,1.4,1.4,0,0,0,.4,1.7l.4.3h.6a1.4,1.4,0,0,0,1.2-.7l.2-.2A.4.4,0,0,1,77.7,118.8Z"/><path class="cls-3" d="M62.2,133.9a.5.5,0,0,0,.7-.3l7.2-17.3,10-7,1.9,12-7.3,17.3a.6.6,0,0,0,.3.7.5.5,0,0,0,.7-.3L83,121.6c.1,0,.1-.1.1-.2l-2.1-13a.8.8,0,0,0-.4-.4h-.5l-10.8,7.6c0,.1-.1.1-.1.2l-7.3,17.4C61.8,133.5,61.9,133.7,62.2,133.9Z"/><path class="cls-3" d="M68.6,136.6a.5.5,0,0,0,.7-.3L76.2,120h-.6l-.4-.3-6.9,16.3C68.2,136.2,68.3,136.4,68.6,136.6Z"/><path class="cls-3" d="M61.2,154.1a.6.6,0,0,0-.7.2L54,169.9a.5.5,0,0,0,.3.7.6.6,0,0,0,.7-.2l6.5-15.7A.4.4,0,0,0,61.2,154.1Z"/><path class="cls-3" d="M56.9,152.3a.6.6,0,0,0-.7.2l-4.8,11.6a.4.4,0,0,0,.3.6.6.6,0,0,0,.7-.2l4.8-11.6A.4.4,0,0,0,56.9,152.3Z"/><path class="cls-3" d="M65.7,156a.4.4,0,0,0-.7.2l-4.9,11.5a.6.6,0,0,0,.3.7.5.5,0,0,0,.7-.3L66,156.6C66.1,156.4,65.9,156.1,65.7,156Z"/><path class="cls-3" d="M73.2,157.8l-1-.4,6.7-16a.4.4,0,0,0-.1-.5.7.7,0,0,0-.6-.2l-13,3.9-6.3-12a.6.6,0,0,0-1,0l-6.7,15.9-1.1-.4c-.1-.1-.4.1-.5.3a.5.5,0,0,0,.2.6l1.5.6h.3c.2,0,.3-.1.4-.3L58.5,134l6,11.4a.8.8,0,0,0,.7.3L77.5,142,71,157.4c-.1.1,0,.3.1.4s0,.2.1.2h.1l1.5.7c.2.1.4-.1.5-.3S73.4,157.9,73.2,157.8Z"/><path class="cls-2" d="M102.1,117.9a1.4,1.4,0,0,0-1.8-.6,1.4,1.4,0,0,0-.8,2,1.4,1.4,0,0,0,1.4.9h.5l.5-.3a1.6,1.6,0,0,0,.5-1.4.4.4,0,0,1-.1-.3Z"/><path class="cls-3" d="M101.8,139.5a.6.6,0,0,0,.4-.7l-7.1-17.3,2-12,9.9,7.1,7.1,17.4a.6.6,0,0,0,.7.2c.2-.1.4-.4.3-.6l-7.2-17.5c0-.1,0-.2-.1-.2l-10.7-7.7a.4.4,0,0,0-.5-.1l-.4.4-2.2,13v.3l7.2,17.4A.4.4,0,0,0,101.8,139.5Z"/><path class="cls-3" d="M108.3,136.8a.4.4,0,0,0,.3-.6l-6.7-16.4-.5.3h-.5l6.7,16.4A.5.5,0,0,0,108.3,136.8Z"/><path class="cls-3" d="M115.5,154.4c-.3.2-.4.4-.3.7l6.3,15.7a.6.6,0,0,0,.7.2.4.4,0,0,0,.3-.6l-6.3-15.7A.5.5,0,0,0,115.5,154.4Z"/><path class="cls-3" d="M111.2,156.2a.6.6,0,0,0-.4.7l4.8,11.6a.5.5,0,0,0,.6.2.6.6,0,0,0,.4-.7l-4.8-11.6A.5.5,0,0,0,111.2,156.2Z"/><path class="cls-3" d="M119.9,152.6a.6.6,0,0,0-.3.7l4.7,11.6a.6.6,0,0,0,.7.2.4.4,0,0,0,.3-.6l-4.7-11.6A.5.5,0,0,0,119.9,152.6Z"/><path class="cls-3" d="M126.6,148.6l-1.1.4L119,133a.5.5,0,0,0-.5-.3.5.5,0,0,0-.5.3l-6.4,11.9-13-4c-.1,0-.4,0-.5.2s-.2.3-.2.5l6.6,16-1.1.4c-.2.1-.2.4-.1.6s.3.4.5.3l1.5-.6h.2a.7.7,0,0,0,.2-.6l-6.3-15.4,12.2,3.8a.6.6,0,0,0,.7-.3l6.1-11.3,6.3,15.5.4.2h.3l1.5-.6a.4.4,0,0,0,.2-.6C127,148.7,126.8,148.5,126.6,148.6Z"/><path class="cls-2" d="M118.8,99.9a1.4,1.4,0,0,0-1.7.9,1.5,1.5,0,0,0,.8,2,1.5,1.5,0,0,0,1.7-.4l.3-.4a1.3,1.3,0,0,0,.1-.6,1.7,1.7,0,0,0-.7-1.3h-.5Z"/><path class="cls-3" d="M133.9,115.4a.5.5,0,0,0-.3-.7l-17.3-7.3-7-9.9,12-1.9,17.3,7.3a.6.6,0,0,0,.7-.4.4.4,0,0,0-.3-.6l-17.4-7.4h-.2l-13,2.1c-.2,0-.3.2-.4.3a.6.6,0,0,0,0,.6l7.6,10.7.2.2,17.4,7.3A.6.6,0,0,0,133.9,115.4Z"/><path class="cls-3" d="M136.6,109a.5.5,0,0,0-.3-.7L120,101.4a1.3,1.3,0,0,1-.1.6l-.3.4,16.3,6.9C136.2,109.4,136.4,109.2,136.6,109Z"/><path class="cls-3" d="M154.1,116.3a.6.6,0,0,0,.2.7l15.6,6.6a.5.5,0,0,0,.7-.3.6.6,0,0,0-.2-.7L154.7,116C154.5,115.9,154.2,116.1,154.1,116.3Z"/><path class="cls-3" d="M152.3,120.6a.6.6,0,0,0,.2.7l11.6,4.9c.2.1.5-.1.6-.3a.6.6,0,0,0-.2-.7l-11.6-4.9C152.7,120.2,152.4,120.4,152.3,120.6Z"/><path class="cls-3" d="M156,111.9a.4.4,0,0,0,.2.7l11.5,4.8a.5.5,0,0,0,.7-.3.4.4,0,0,0-.3-.6l-11.5-4.9A.4.4,0,0,0,156,111.9Z"/><path class="cls-3" d="M157.8,104.4l-.4,1-16-6.7c-.2-.1-.4-.1-.5.1a.7.7,0,0,0-.2.6l3.9,13-12,6.3a.5.5,0,0,0-.3.5c0,.2.1.4.3.4l15.9,6.7-.4,1.1c-.1.2.1.4.3.5s.5.1.6-.1l.6-1.6h.1V126a.5.5,0,0,0-.3-.5L134,119.1l11.4-6a.8.8,0,0,0,.3-.7L142,100.1l15.4,6.5h.6l.7-1.6c.1-.1-.1-.4-.3-.5A.4.4,0,0,0,157.8,104.4Z"/><path class="cls-2" d="M117.9,75.4a1.6,1.6,0,0,0-.6,1.9,1.6,1.6,0,0,0,2,.8,1.5,1.5,0,0,0,.9-1.5,1.1,1.1,0,0,0-.1-.5l-.3-.5a1.8,1.8,0,0,0-1.4-.4h-.5Z"/><path class="cls-3" d="M139.5,75.7a.6.6,0,0,0-.7-.3l-17.3,7.1-12-2.1,7.1-9.8L134,63.5a.6.6,0,0,0,.2-.7.4.4,0,0,0-.6-.3l-17.5,7.1-.2.2-7.7,10.6a.7.7,0,0,0-.1.6.5.5,0,0,0,.4.3l13,2.3h.3l17.4-7.1A.5.5,0,0,0,139.5,75.7Z"/><path class="cls-3" d="M136.8,69.3a.4.4,0,0,0-.6-.3l-16.4,6.6.3.5a1.1,1.1,0,0,1,.1.5L136.6,70C136.8,69.9,137,69.5,136.8,69.3Z"/><path class="cls-3" d="M154.4,62.1c.2.3.4.4.7.3L170.8,56a.6.6,0,0,0,.2-.7c-.1-.2-.4-.4-.6-.3l-15.7,6.4A.5.5,0,0,0,154.4,62.1Z"/><path class="cls-3" d="M156.2,66.4a.5.5,0,0,0,.7.3L168.5,62a.6.6,0,0,0,.2-.7.5.5,0,0,0-.7-.3l-11.6,4.7A.6.6,0,0,0,156.2,66.4Z"/><path class="cls-3" d="M152.6,57.6a.6.6,0,0,0,.7.4l11.6-4.8a.6.6,0,0,0,.2-.7c-.1-.2-.4-.4-.6-.3L152.9,57A.4.4,0,0,0,152.6,57.6Z"/><path class="cls-3" d="M148.6,51l.4,1-16,6.6c-.2,0-.3.2-.3.4a.5.5,0,0,0,.3.5L144.9,66l-4,12.9a1.3,1.3,0,0,0,.1.6.7.7,0,0,0,.6.1l16-6.5.4,1.1a.6.6,0,0,0,.6.1c.3-.1.4-.3.3-.5l-.6-1.6h0V72a.7.7,0,0,0-.6-.1l-15.4,6.3L146,65.9c.1-.2-.1-.5-.3-.6l-11.3-6.2,15.5-6.3c.1,0,.2-.1.2-.3a.3.3,0,0,0,.1-.2h-.1l-.6-1.6c-.1-.2-.3-.2-.6-.1S148.5,50.8,148.6,51Z"/><path class="cls-2" d="M99.9,58.8a1.4,1.4,0,0,0,.9,1.7,1.5,1.5,0,0,0,2-.8,1.5,1.5,0,0,0-.4-1.7l-.4-.3h-.6a1.5,1.5,0,0,0-1.3.7.3.3,0,0,0-.1.2A.4.4,0,0,0,99.9,58.8Z"/><path class="cls-3" d="M115.4,43.7a.6.6,0,0,0-.7.2l-7.3,17.3-9.9,7-1.9-12,7.3-17.3c.1-.2-.1-.5-.4-.6a.5.5,0,0,0-.6.2L94.5,55.9v.3l2.1,13c0,.2.2.3.3.4a.7.7,0,0,0,.6-.1l10.7-7.6h.2l7.3-17.4A.5.5,0,0,0,115.4,43.7Z"/><path class="cls-3" d="M109,41a.6.6,0,0,0-.7.2l-6.9,16.4h.6l.4.3,6.9-16.3A.6.6,0,0,0,109,41Z"/><path class="cls-3" d="M116.3,23.5a.5.5,0,0,0,.7-.3l6.6-15.6a.4.4,0,0,0-.3-.6.6.6,0,0,0-.7.2L116,22.8A.6.6,0,0,0,116.3,23.5Z"/><path class="cls-3" d="M120.6,25.3a.6.6,0,0,0,.7-.2l4.9-11.6c.1-.2-.1-.5-.3-.6a.4.4,0,0,0-.7.2l-4.9,11.5A.6.6,0,0,0,120.6,25.3Z"/><path class="cls-3" d="M111.9,21.6a.6.6,0,0,0,.7-.2l4.8-11.6c.2-.2,0-.5-.3-.6a.5.5,0,0,0-.6.2L111.6,21A.4.4,0,0,0,111.9,21.6Z"/><path class="cls-3" d="M104.4,19.8l1,.4L98.7,36.1a.5.5,0,0,0,.1.6.7.7,0,0,0,.6.1l13-3.8,6.3,11.9a1,1,0,0,0,.5.4.4.4,0,0,0,.4-.3l6.7-16,1.1.5a.5.5,0,0,0,.5-.3c.1-.3.1-.5-.1-.6l-1.6-.7H126a.5.5,0,0,0-.5.3l-6.4,15.3-6-11.3a.5.5,0,0,0-.7-.3l-12.3,3.7,6.5-15.4a.9.9,0,0,0-.1-.5h-.2l-1.6-.6c-.1-.1-.4,0-.5.3A.5.5,0,0,0,104.4,19.8Z"/><path class="cls-2" d="M75.4,59.7a1.6,1.6,0,0,0,1.9.6,1.6,1.6,0,0,0,.8-2,1.3,1.3,0,0,0-1.5-.9h-.5c-.2,0-.3.2-.5.3a1.7,1.7,0,0,0-.4,1.4.4.4,0,0,0,.1.3A.3.3,0,0,1,75.4,59.7Z"/><path class="cls-3" d="M75.7,38.1c-.2.1-.4.4-.3.6l7.1,17.4-2.1,12L70.6,61,63.5,43.6a.5.5,0,0,0-.7-.2.4.4,0,0,0-.3.6l7.1,17.5.2.2,10.6,7.7H81c.2,0,.3-.2.3-.4l2.3-12.9a.4.4,0,0,0-.1-.3L76.4,38.3A.6.6,0,0,0,75.7,38.1Z"/><path class="cls-3" d="M69.3,40.7a.5.5,0,0,0-.3.7l6.6,16.4c.2-.1.3-.3.5-.3h.5L70,41A.5.5,0,0,0,69.3,40.7Z"/><path class="cls-3" d="M62.1,23.1a.4.4,0,0,0,.3-.6L56,6.8a.5.5,0,0,0-.7-.3c-.2.2-.4.4-.3.7l6.4,15.7A.6.6,0,0,0,62.1,23.1Z"/><path class="cls-3" d="M66.4,21.4a.5.5,0,0,0,.3-.7L62,9.1a.6.6,0,0,0-.7-.2.4.4,0,0,0-.3.6l4.7,11.6A.5.5,0,0,0,66.4,21.4Z"/><path class="cls-3" d="M57.6,24.9c.3-.1.5-.4.4-.6L53.2,12.7a.5.5,0,0,0-.7-.3c-.2.2-.4.5-.3.7L57,24.7A.5.5,0,0,0,57.6,24.9Z"/><path class="cls-3" d="M51,29l1-.5,6.6,16.1a.4.4,0,0,0,.4.3.9.9,0,0,0,.5-.3l6.5-12,12.9,4.1a.7.7,0,0,0,.6-.2.4.4,0,0,0,.1-.5L73.1,20l1.1-.5c.1,0,.2-.3.1-.6a.5.5,0,0,0-.5-.3l-1.6.7H72a.4.4,0,0,0-.1.5l6.3,15.5L65.9,31.6a.4.4,0,0,0-.6.3L59.1,43.1,52.8,27.7c0-.2-.1-.2-.3-.3h-.3l-1.6.7c-.2,0-.2.3-.1.6A.5.5,0,0,0,51,29Z"/><path class="cls-2" d="M58.8,77.7a1.5,1.5,0,0,0,1.7-.9,1.5,1.5,0,0,0-.8-2,1.4,1.4,0,0,0-1.7.4l-.3.4a1.3,1.3,0,0,0-.1.6,1.2,1.2,0,0,0,.7,1.2l.2.2Z"/><path class="cls-3" d="M43.7,62.2a.7.7,0,0,0,.2.7l17.3,7.2,7,10L56.2,82,38.9,74.7c-.2-.1-.5.1-.6.3a.6.6,0,0,0,.2.7L55.9,83h.3l13-2.1a.8.8,0,0,0,.4-.4.4.4,0,0,0-.1-.5L61.9,69.3h-.1L44.4,61.9A.5.5,0,0,0,43.7,62.2Z"/><path class="cls-3" d="M41,68.6a.6.6,0,0,0,.2.7l16.4,6.9a1.3,1.3,0,0,1,.1-.6l.3-.4L41.7,68.3A.5.5,0,0,0,41,68.6Z"/><path class="cls-3" d="M23.5,61.2a.5.5,0,0,0-.3-.7L7.6,54a.4.4,0,0,0-.6.3.6.6,0,0,0,.2.7l15.6,6.5A.5.5,0,0,0,23.5,61.2Z"/><path class="cls-3" d="M25.3,56.9a.6.6,0,0,0-.2-.7L13.5,51.4a.4.4,0,0,0-.6.3.4.4,0,0,0,.2.7l11.5,4.8A.5.5,0,0,0,25.3,56.9Z"/><path class="cls-3" d="M21.6,65.7a.6.6,0,0,0-.2-.7L9.8,60.1c-.2-.1-.5.1-.6.3a.6.6,0,0,0,.2.7L21,66C21.2,66.1,21.5,65.9,21.6,65.7Z"/><path class="cls-3" d="M19.8,73.2l.4-1,15.9,6.7a.5.5,0,0,0,.7-.7L33,65.2l11.9-6.3a1,1,0,0,0,.4-.5.9.9,0,0,0-.3-.5L29,51.2l.5-1.1a.7.7,0,0,0-.3-.5.4.4,0,0,0-.6.2l-.7,1.5h0a.5.5,0,0,0,.3.5l15.3,6.5-11.3,6a.5.5,0,0,0-.3.7l3.7,12.3L20.2,71c-.2-.1-.3,0-.5.1a.1.1,0,0,0-.1.1h-.1l-.6,1.5c-.1.2,0,.4.3.5S19.7,73.4,19.8,73.2Z"/><path class="cls-2" d="M59.7,102.1a1.4,1.4,0,0,0,.6-1.8,1.4,1.4,0,0,0-2-.8,1.3,1.3,0,0,0-.9,1.4.7.7,0,0,0,.1.5.9.9,0,0,0,.3.5,1.5,1.5,0,0,0,1.4.5h.3Z"/><path class="cls-3" d="M38.1,101.8c.1.3.4.5.6.4l17.4-7.1,12,2L61,107l-17.4,7.1a.5.5,0,0,0-.2.7c.1.2.4.4.6.3l17.5-7.2h.2l7.7-10.7a.4.4,0,0,0,0-.5c0-.2-.2-.3-.4-.4L56.1,94h-.3l-17.5,7.2A.5.5,0,0,0,38.1,101.8Z"/><path class="cls-3" d="M40.7,108.3a.5.5,0,0,0,.7.3l16.4-6.7a.9.9,0,0,1-.3-.5.7.7,0,0,1-.1-.5L41,107.6A.5.5,0,0,0,40.7,108.3Z"/><path class="cls-3" d="M23.1,115.5a.4.4,0,0,0-.6-.3L6.8,121.5a.5.5,0,0,0-.3.7c.2.3.4.4.7.3l15.7-6.3A.6.6,0,0,0,23.1,115.5Z"/><path class="cls-3" d="M21.4,111.2a.6.6,0,0,0-.7-.4L9.1,115.6a.5.5,0,0,0-.2.6c.1.3.4.5.6.4l11.6-4.8A.4.4,0,0,0,21.4,111.2Z"/><path class="cls-3" d="M24.9,119.9c-.1-.2-.4-.4-.6-.3l-11.6,4.7a.5.5,0,0,0-.3.7.6.6,0,0,0,.7.3l11.6-4.7A.6.6,0,0,0,24.9,119.9Z"/><path class="cls-3" d="M29,126.6l-.5-1.1L44.6,119a.6.6,0,0,0,.3-.5.9.9,0,0,0-.3-.5l-12-6.4,4.1-12.9c0-.2,0-.5-.2-.6s-.3-.2-.5-.2l-16,6.6-.5-1.1c0-.2-.3-.2-.6-.1a.5.5,0,0,0-.3.5l.7,1.5h.1c.1.2.3.2.5.2l15.5-6.3-3.8,12.2a.5.5,0,0,0,.3.7l11.2,6.1-15.4,6.3c-.2.1-.2.2-.3.4v.2h0l.7,1.5c0,.2.3.3.6.2A.5.5,0,0,0,29,126.6Z"/><path class="cls-2" d="M83.3,96.9a10.7,10.7,0,1,0,1.6-18.4,13,13,0,0,0-3.1,2.1A10.4,10.4,0,0,0,79.6,84a10.6,10.6,0,0,0,1,10.2,4.4,4.4,0,0,0,1.2,1.5Z"/></g></g></g></svg>