<svg xmlns="http://www.w3.org/2000/svg" xmlns:xlink="http://www.w3.org/1999/xlink" viewBox="0 0 32 40"><defs><style>.cls-1{fill:url(#linear-gradient);}.cls-2{fill:url(#linear-gradient-2);}.cls-3{fill:url(#linear-gradient-3);}.cls-4{fill:url(#linear-gradient-4);}</style><linearGradient id="linear-gradient" x1="16" y1="40.46" x2="16" y2="0.51" gradientUnits="userSpaceOnUse"><stop offset="0" stop-color="#009efd"/><stop offset="0.2" stop-color="#02a1f9"/><stop offset="0.4" stop-color="#07aced"/><stop offset="0.6" stop-color="#0fbdd9"/><stop offset="0.8" stop-color="#1bd6bc"/><stop offset="1" stop-color="#2af598"/><stop offset="1" stop-color="#2af598"/></linearGradient><linearGradient id="linear-gradient-2" x1="16" y1="40.46" x2="16" y2="0.49" xlink:href="#linear-gradient"/><linearGradient id="linear-gradient-3" x1="19.94" y1="40.46" x2="19.94" y2="0.49" xlink:href="#linear-gradient"/><linearGradient id="linear-gradient-4" x1="12.06" y1="40.46" x2="12.06" y2="0.49" xlink:href="#linear-gradient"/></defs><title>discount-percent</title><g id="Layer_2" data-name="Layer 2"><g id="Layer_1-2" data-name="Layer 1"><path class="cls-1" d="M27.7,14.2A45.8,45.8,0,0,1,21.2,5a18.7,18.7,0,0,1-1.6-3.7L19.3,0,18,.6a11.9,11.9,0,0,0-5.5,5.5,12.6,12.6,0,0,0-1.2,5.6,1.8,1.8,0,0,1-1.5,1.8A1.8,1.8,0,0,1,8.2,13L5.9,10.7l-.8,1.1L2.6,15.1a16.8,16.8,0,0,0-2.6,9A16,16,0,0,0,16,40,16,16,0,0,0,32,24C32,20.8,30.4,17.2,27.7,14.2ZM16,37.6a13.6,13.6,0,0,1-9.6-3.9,14,14,0,0,1-4.1-9.6,13.9,13.9,0,0,1,2.3-7.7l1.5-2.1.4.4a4.4,4.4,0,0,0,3.8,1.1,4.2,4.2,0,0,0,3.3-4.1,11.2,11.2,0,0,1,.9-4.5,10.8,10.8,0,0,1,3.4-3.8c.8,2.2,3.1,6.8,8.1,12.3,1.1,1.3,3.7,4.5,3.7,8.3A13.7,13.7,0,0,1,16,37.6Z"/><polygon class="cls-2" points="18.4 19.9 11 30.6 13.6 30.6 21 19.9 18.4 19.9"/><path class="cls-3" d="M19.9,24.8a2.7,2.7,0,0,0-2.8,3,2.7,2.7,0,0,0,2.8,3,2.8,2.8,0,0,0,2.9-3A2.8,2.8,0,0,0,19.9,24.8Zm0,4.3c-.3,0-.6-.3-.6-1.3s.3-1.3.6-1.3.7.3.7,1.3S20.3,29.1,19.9,29.1Z"/><path class="cls-4" d="M14.9,22.7a2.7,2.7,0,0,0-2.8-3,2.8,2.8,0,0,0-2.9,3,2.8,2.8,0,0,0,2.9,3A2.7,2.7,0,0,0,14.9,22.7Zm-3.5,0c0-1,.3-1.3.7-1.3s.6.3.6,1.3-.3,1.4-.6,1.4S11.4,23.7,11.4,22.7Z"/></g></g></svg>