<svg xmlns="http://www.w3.org/2000/svg" viewBox="0 0 35.9 35.9"><defs><style>.cls-1{fill:#fff;}</style></defs><title>ic-inst</title><g id="Layer_2" data-name="Layer 2"><g id="Footer"><path class="cls-1" d="M26.2,0H9.7A9.8,9.8,0,0,0,0,9.7V26.2a9.7,9.7,0,0,0,9.7,9.7H26.2a9.6,9.6,0,0,0,9.7-9.7V9.7A9.7,9.7,0,0,0,26.2,0ZM18,27.8A9.9,9.9,0,1,1,27.8,18,9.8,9.8,0,0,1,18,27.8ZM28,10.5a2.9,2.9,0,0,1-2.9-2.9,2.9,2.9,0,1,1,5.8,0A2.9,2.9,0,0,1,28,10.5Z"/><path class="cls-1" d="M18,10.2A7.8,7.8,0,1,0,25.7,18,7.8,7.8,0,0,0,18,10.2Z"/><path class="cls-1" d="M28,6.8a.8.8,0,0,0-.8.8.8.8,0,0,0,.8.7.7.7,0,0,0,.8-.7A.7.7,0,0,0,28,6.8Z"/></g></g></svg>