<svg xmlns="http://www.w3.org/2000/svg" viewBox="0 0 28 28"><defs><style>.cls-1{fill:#bebebe;}</style></defs><title>ic-inst-gray</title><g id="Layer_2" data-name="Layer 2"><g id="Body"><path class="cls-1" d="M20.4,0H7.6A7.6,7.6,0,0,0,0,7.6V20.4A7.6,7.6,0,0,0,7.6,28H20.4A7.6,7.6,0,0,0,28,20.4V7.6A7.6,7.6,0,0,0,20.4,0ZM14,21.6A7.7,7.7,0,0,1,6.3,14,7.8,7.8,0,0,1,14,6.3,7.7,7.7,0,0,1,21.6,14,7.6,7.6,0,0,1,14,21.6ZM21.8,8.1a2.2,2.2,0,0,1-2.2-2.2,2.3,2.3,0,1,1,2.2,2.2Z"/><path class="cls-1" d="M14,8a6,6,0,1,0,6,6A6,6,0,0,0,14,8Z"/><path class="cls-1" d="M21.8,5.3a.6.6,0,0,0-.6.6.6.6,0,0,0,.6.6.6.6,0,0,0,.6-.6A.5.5,0,0,0,21.8,5.3Z"/></g></g></svg>