<svg xmlns="http://www.w3.org/2000/svg" viewBox="0 0 35.9 35.9"><defs><style>.cls-1{fill:#fff;}</style></defs><title>ic-linkin</title><g id="Layer_2" data-name="Layer 2"><g id="Footer"><path class="cls-1" d="M35.9,35.9h0V22.7c0-6.4-1.4-11.4-8.9-11.4a7.6,7.6,0,0,0-7,3.9h-.2V11.9H12.7v24h7.4V24c0-3.1.6-6.1,4.5-6.1s3.9,3.6,3.9,6.3V35.9Z"/><path class="cls-1" d="M.6,11.9H8v24H.6Z"/><path class="cls-1" d="M4.3,0A4.3,4.3,0,0,0,0,4.3,4.4,4.4,0,0,0,4.3,8.7,4.4,4.4,0,0,0,8.6,4.3,4.3,4.3,0,0,0,4.3,0Z"/></g></g></svg>