<svg xmlns="http://www.w3.org/2000/svg" xmlns:xlink="http://www.w3.org/1999/xlink" width="36.303" height="36.302" viewBox="0 0 36.303 36.302"><defs><clipPath id="a"><rect width="36.303" height="36.302" fill="none"/></clipPath></defs><g clip-path="url(#a)"><g transform="translate(-1575.141 -5213.386)"><path d="M1593.292,5213.386a18.151,18.151,0,1,0,18.152,18.151,18.152,18.152,0,0,0-18.152-18.151Zm8.324,26.179a1.129,1.129,0,0,1-1.556.375c-4.262-2.6-9.627-3.192-15.945-1.749a1.131,1.131,0,0,1-.5-2.206c6.915-1.58,12.846-.9,17.63,2.024A1.13,1.13,0,0,1,1601.616,5239.565Zm2.222-4.942a1.415,1.415,0,0,1-1.946.467c-4.88-3-12.317-3.868-18.088-2.116a1.415,1.415,0,1,1-.822-2.708,26.48,26.48,0,0,1,20.39,2.412,1.414,1.414,0,0,1,.466,1.945Zm.191-5.146c-5.85-3.475-15.5-3.795-21.088-2.1a1.7,1.7,0,1,1-.985-3.249c6.411-1.946,17.07-1.57,23.8,2.428a1.7,1.7,0,0,1-1.731,2.921Z" fill="#fff"/></g></g></svg>