<svg xmlns="http://www.w3.org/2000/svg" width="31.913" height="36.03" viewBox="0 0 31.913 36.03"><g transform="translate(-1639.636 -5213.522)"><path d="M1663.228,5226.563a14.059,14.059,0,0,0,8.2,2.622v-5.88a8.294,8.294,0,0,1-1.722-.18v4.628a14.054,14.054,0,0,1-8.2-2.622v12a10.876,10.876,0,0,1-16.926,9.03,10.875,10.875,0,0,0,18.648-7.6v-12Zm2.124-5.932a8.2,8.2,0,0,1-2.124-4.8v-.756H1661.6a8.235,8.235,0,0,0,3.756,5.554Zm-16.974,20.923a4.975,4.975,0,0,1,5.468-7.748v-6.011a10.907,10.907,0,0,0-1.721-.1v4.679a4.973,4.973,0,0,0-3.747,9.18Z" fill="none" stroke="#fff" stroke-miterlimit="10" stroke-width="0.246"/><path d="M1661.506,5225.131a14.054,14.054,0,0,0,8.2,2.622v-4.628a12.979,12.979,0,0,1-8.108-8.048h-4.285v23.484a7.033,7.033,0,1,1-5.186-6.187V5227.7a10.179,10.179,0,1,0,9.381,9.434v-12Z" fill="#fff"/><path d="M1669.7,5223.125v-1.252a8.2,8.2,0,0,1-4.352-1.242A8.223,8.223,0,0,0,1669.7,5223.125Zm-8.108-8.048q-.058-.336-.09-.675v-.757h-5.917v23.485a4.977,4.977,0,0,1-7.211,4.424,4.975,4.975,0,0,0,8.933-2.993v-23.484Zm-9.471,12.619v-1.333a11.125,11.125,0,0,0-1.492-.1,10.867,10.867,0,0,0-6.053,19.9,10.867,10.867,0,0,1,7.545-18.463Z" fill="none" stroke="#fff" stroke-miterlimit="10" stroke-width="0.246"/></g></svg>