<svg xmlns="http://www.w3.org/2000/svg" xmlns:xlink="http://www.w3.org/1999/xlink" viewBox="0 0 71.9 71.9"><defs><style>.cls-1{fill:url(#linear-gradient);}</style><linearGradient id="linear-gradient" x1="35.94" y1="486" x2="35.94" y2="557.88" gradientTransform="translate(0 -486)" gradientUnits="userSpaceOnUse"><stop offset="0" stop-color="#2af497"/><stop offset="1" stop-color="#009dfc"/></linearGradient></defs><title>icon-cup_1</title><g id="Layer_2" data-name="Layer 2"><g id="Icon"><path class="cls-1" d="M58.8,5.5V0h-46V5.5H0V8.3A30,30,0,0,0,5.8,26.8c3.3,4.5,7.4,7.7,11.1,10.5a43.2,43.2,0,0,1,5.7,4.8A40.2,40.2,0,0,0,33,51.8v4.6H31.6A12.6,12.6,0,0,0,19,69.1v2.8H52.6V69.1A12.6,12.6,0,0,0,40,56.4H38.6V51.8A43.4,43.4,0,0,0,49,42.2a38,38,0,0,1,5.8-4.9c3.7-2.8,7.9-6,11.2-10.5A29.5,29.5,0,0,0,71.9,8.3V5.5ZM5.7,11.1h7.2a70.1,70.1,0,0,0,2.8,17.1,6.5,6.5,0,0,0,.4,1.3C11.1,25.3,6.5,20,5.7,11.1ZM40,62.1a6.8,6.8,0,0,1,6.4,4.2H25.2a6.8,6.8,0,0,1,6.4-4.2ZM35.8,46.9a34.8,34.8,0,0,1-7.5-6.6h0l-1.5-1.8c-7-9.5-8.2-21.5-8.4-32.8H53.2c-.2,11.3-1.4,23.3-8.4,32.8a11.9,11.9,0,0,0-1.5,1.8h0A34.8,34.8,0,0,1,35.8,46.9ZM55.5,29.7c.1-.5.3-1,.4-1.5a70.1,70.1,0,0,0,2.8-17.1h7.4C65.3,20.1,60.6,25.4,55.5,29.7Zm-15-5.5,1.1,6.3-5.7-3-5.8,3,1.1-6.3-4.7-4.5,6.5-.9,2.9-5.7,2.9,5.7,6.4.9Z"/></g></g></svg>