<svg xmlns="http://www.w3.org/2000/svg" xmlns:xlink="http://www.w3.org/1999/xlink" viewBox="0 0 25 36"><defs><style>.cls-1{fill:url(#linear-gradient);}.cls-2{fill:url(#linear-gradient-2);}.cls-3{fill:url(#linear-gradient-3);}.cls-4{fill:url(#linear-gradient-4);}.cls-5{fill:url(#linear-gradient-5);}.cls-6{fill:url(#linear-gradient-6);}</style><linearGradient id="linear-gradient" x1="12.21" y1="36.05" x2="12.21" y2="-0.34" gradientUnits="userSpaceOnUse"><stop offset="0" stop-color="#009dfc"/><stop offset="1" stop-color="#2af497"/></linearGradient><linearGradient id="linear-gradient-2" x1="13.38" y1="36.05" x2="13.38" y2="-0.34" xlink:href="#linear-gradient"/><linearGradient id="linear-gradient-3" x1="3.25" y1="36.05" x2="3.25" y2="-0.34" xlink:href="#linear-gradient"/><linearGradient id="linear-gradient-4" x1="1.26" y1="36.05" x2="1.26" y2="-0.34" xlink:href="#linear-gradient"/><linearGradient id="linear-gradient-5" x1="21.75" y1="36.05" x2="21.75" y2="-0.34" xlink:href="#linear-gradient"/><linearGradient id="linear-gradient-6" x1="23.74" y1="36.05" x2="23.74" y2="-0.34" xlink:href="#linear-gradient"/></defs><title>icon-digital-01</title><g id="Layer_2" data-name="Layer 2"><g id="Layer_6" data-name="Layer 6"><path class="cls-1" d="M17.7,16.9a1.1,1.1,0,0,0-.8.1v-.7a.3.3,0,0,0-.1-.2A8.7,8.7,0,1,0,3.5,8.7a8.8,8.8,0,0,0,5.2,8V18A3.5,3.5,0,0,0,7,17.4a1.2,1.2,0,0,0-1.2,1.2v7.5a4.2,4.2,0,0,0,.4,1.5l1.4,2.2v2.8H6.4V36H18V32.6H16.9V29.9l1.6-2.2a2.4,2.4,0,0,0,.7-1.8V18.7A1.7,1.7,0,0,0,17.7,16.9ZM4.7,8.7a7.5,7.5,0,0,1,7.5-7.5,7.5,7.5,0,0,1,4.1,13.9,1.1,1.1,0,0,0-.9-.5h-.6l1.5-.9-.8-.9a5.6,5.6,0,0,1-1.7.9,1.1,1.1,0,0,0-.7-.3,1.4,1.4,0,0,0-.9.1V11.6a2.1,2.1,0,0,0-.4-1.1h2.7a1.8,1.8,0,0,0,1.8-1.8A1.8,1.8,0,0,0,14.5,7H9.9A1.8,1.8,0,0,0,8.1,8.7a1.8,1.8,0,0,0,1.2,1.7,1.6,1.6,0,0,0-.6,1.3v.9A5.2,5.2,0,0,1,7,8.7,5,5,0,0,1,8.2,5.4l-.9-.7a5.9,5.9,0,0,0-1.5,4,6.5,6.5,0,0,0,2.9,5.4v1.3A7.7,7.7,0,0,1,4.7,8.7Zm5.2.6a.6.6,0,0,1-.6-.6.6.6,0,0,1,.6-.6h4.6a.6.6,0,0,1,0,1.2Zm7,25.6H7.6V33.7h9.3Zm1.1-9a1.5,1.5,0,0,1-.4,1.1l-1.9,2.4v3.2h-7V29.5L7.2,27a2.9,2.9,0,0,1-.2-.9V18.6a1.8,1.8,0,0,1,1.7,1.7v3H9.9V11.7a.6.6,0,0,1,.5-.6c.1-.1.3,0,.4.1a.4.4,0,0,1,.2.4V23.3h1.2V15.1a.5.5,0,0,1,.2-.4l.5-.2a.8.8,0,0,1,.5.7v8.1h1.1v-7a.8.8,0,0,1,.2-.5h.5a.6.6,0,0,1,.5.6v7h1.2V18.6c0-.2,0-.3.2-.4l.4-.2a.8.8,0,0,1,.5.7Z"/><path class="cls-2" d="M12.2,3.5a5.2,5.2,0,0,1,5.2,5.2A5.5,5.5,0,0,1,16.3,12l.9.8a6.8,6.8,0,0,0,1.4-4.1,6.4,6.4,0,0,0-6.4-6.4,5.9,5.9,0,0,0-4,1.5l.7.9A5,5,0,0,1,12.2,3.5Z"/><path class="cls-3" d="M3.3,23.1a3.9,3.9,0,0,0-1,2.5,3.5,3.5,0,0,0,1,2.4l.9-.8a2,2,0,0,1-.7-1.6,2.3,2.3,0,0,1,.7-1.7Z"/><path class="cls-4" d="M2.5,22.3l-.8-.8A5.7,5.7,0,0,0,0,25.6a5.8,5.8,0,0,0,1.7,4.1l.8-.8a4.6,4.6,0,0,1-1.3-3.3A4.4,4.4,0,0,1,2.5,22.3Z"/><path class="cls-5" d="M21.7,23.1l-.9.8a2.3,2.3,0,0,1,.7,1.7,2,2,0,0,1-.7,1.6l.9.8a3.5,3.5,0,0,0,1-2.4A3.9,3.9,0,0,0,21.7,23.1Z"/><path class="cls-6" d="M23.3,21.5l-.8.8a4.4,4.4,0,0,1,1.3,3.3,4.6,4.6,0,0,1-1.3,3.3l.8.8A5.8,5.8,0,0,0,25,25.6,5.7,5.7,0,0,0,23.3,21.5Z"/></g></g></svg>