<svg xmlns="http://www.w3.org/2000/svg" xmlns:xlink="http://www.w3.org/1999/xlink" viewBox="0 0 34.9 34.9"><defs><style>.cls-1{fill:url(#linear-gradient);}</style><linearGradient id="linear-gradient" x1="17.47" y1="36.03" x2="17.47" y2="-0.35" gradientUnits="userSpaceOnUse"><stop offset="0" stop-color="#009dfc"/><stop offset="1" stop-color="#2af497"/></linearGradient></defs><title>icon-digital-03</title><g id="Layer_2" data-name="Layer 2"><g id="Layer_6" data-name="Layer 6"><path class="cls-1" d="M30.7,8.3h.1l.4-.2,3.5-3.5a.7.7,0,0,0,.2-.7.7.7,0,0,0-.6-.4l-2.6-.3L31.5.6C31.4.3,31.3.1,31,0a1,1,0,0,0-.7.2L26.8,3.7a1.4,1.4,0,0,0-.2.6l.3,2.8-.6.6a15.2,15.2,0,0,0-9.2-3.8V2.7a.7.7,0,0,0-.6-.7.7.7,0,0,0-.7.7V3.9A14.6,14.6,0,0,0,1.9,17.8H.7a.7.7,0,0,0-.7.7.7.7,0,0,0,.7.6H1.9A14.5,14.5,0,0,0,15.8,33v1.3a.7.7,0,0,0,.7.6.6.6,0,0,0,.6-.6V33A14.5,14.5,0,0,0,31,19.1h1.3a.6.6,0,0,0,.6-.6.7.7,0,0,0-.6-.7H31a14.2,14.2,0,0,0-3.8-9.1l.7-.7Zm-.4-6.2V3.9c.1.3.3.6.6.6l1.8.2L30.5,7l-2.3-.3L28,4.4Zm-.6,15.7h-.9a.7.7,0,0,0-.7.7.7.7,0,0,0,.7.6h.9A13.2,13.2,0,0,1,17.1,31.7v-.9a.6.6,0,0,0-.6-.6c-.4,0-.7.2-.7.6v.9A13.2,13.2,0,0,1,3.2,19.1h.9a.7.7,0,0,0,.7-.6.7.7,0,0,0-.7-.7H3.2A13.3,13.3,0,0,1,15.8,5.2v1a.7.7,0,0,0,.7.6.6.6,0,0,0,.6-.6v-1a13.6,13.6,0,0,1,8.3,3.5l-2,1.9A10.7,10.7,0,0,0,16.5,8,10.5,10.5,0,1,0,26.9,18.5a10.3,10.3,0,0,0-2.6-6.9l2-2A13.5,13.5,0,0,1,29.7,17.8ZM16,18.9c.1.2.3.2.5.2a.4.4,0,0,0,.4-.2l3.6-3.5a5.2,5.2,0,0,1,1,3.1,5,5,0,0,1-5,5.1,5.1,5.1,0,1,1,0-10.2,4.6,4.6,0,0,1,3,1.1L16,18A.6.6,0,0,0,16,18.9Zm.5-6.8a6.4,6.4,0,1,0,6.3,6.4,6.3,6.3,0,0,0-1.4-4l2-2a9,9,0,0,1,2.2,6,9.2,9.2,0,1,1-9.1-9.2,9.5,9.5,0,0,1,6,2.3l-2,1.9A6.3,6.3,0,0,0,16.5,12.1Z"/></g></g></svg>