<svg xmlns="http://www.w3.org/2000/svg" viewBox="0 0 27.6 27.6"><defs><style>.cls-1{fill:#fff;}</style></defs><title>icon-signin-white</title><g id="Layer_2" data-name="Layer 2"><g id="Layer_1-2" data-name="Layer 1"><path class="cls-1" d="M13.8,0A13.8,13.8,0,1,0,27.6,13.8,13.8,13.8,0,0,0,13.8,0Zm-8,23.1a8,8,0,0,1,16,0,12.2,12.2,0,0,1-8,3A12,12,0,0,1,5.8,23.1Zm4-13.3a4,4,0,1,1,4,4A4,4,0,0,1,9.8,9.8Zm13.3,12a9.2,9.2,0,0,0-2.6-5.2,10,10,0,0,0-3.6-2.3,5.5,5.5,0,0,0-3.1-10A5.5,5.5,0,0,0,8.3,9.8a5.5,5.5,0,0,0,2.4,4.5,9.5,9.5,0,0,0-6.2,7.5,12.3,12.3,0,1,1,21.6-8A12.2,12.2,0,0,1,23.1,21.8Z"/></g></g></svg>