<svg xmlns="http://www.w3.org/2000/svg" xmlns:xlink="http://www.w3.org/1999/xlink" viewBox="0 0 72.2 72.2"><defs><style>.cls-1{fill:url(#linear-gradient);}</style><linearGradient id="linear-gradient" x1="36.08" y1="10692.09" x2="36.08" y2="10764.24" gradientTransform="matrix(1, 0, 0, -1, 0, 10764.24)" gradientUnits="userSpaceOnUse"><stop offset="0" stop-color="#009dfc"/><stop offset="1" stop-color="#2af497"/></linearGradient></defs><title>icon-hand_1</title><g id="Layer_2" data-name="Layer 2"><g id="Icon"><path class="cls-1" d="M65.6,32.3l-1.3-.6-5-1.2V30a8.3,8.3,0,0,0,3.5-6.7V21.2a8.3,8.3,0,0,0-7.9-8.4h-.6l1.3-3L49.4,3.7,45.8,6a33.8,33.8,0,0,0-4.4-1.8L40.5,0H31.6l-.9,4.2A32.5,32.5,0,0,0,26.4,6L22.8,3.7,16.6,9.8l1.2,3h-.1a8.1,8.1,0,0,0-5.9,2.3,7.9,7.9,0,0,0-2.5,5.8v2.4A8.3,8.3,0,0,0,12.8,30v.5l-3.2.8L3.8,27.9H0V52l11.4,3.9h2.3l.3-1L17.5,57A3.6,3.6,0,0,0,21,60.5,3.6,3.6,0,0,0,24.5,64a3.5,3.5,0,0,0,3.4,3.5A3.7,3.7,0,0,0,31.6,71a3.6,3.6,0,0,0,2-.6l1,.9a4.2,4.2,0,0,0,2.4.9h.2a3.5,3.5,0,0,0,3.5-3.5,3.6,3.6,0,0,0,3.5-3.5,3.6,3.6,0,0,0,3.5-3.5,3.7,3.7,0,0,0,3.5-3.6v-.4l21-10.4v-17H69.5ZM60.5,21.2v2.1a5.8,5.8,0,0,1-2.9,5l-.6.3v3.7l5.8,1.5L50,40.5V37.4a6,6,0,0,0-1.6-4.1l4-1V28.6l-.6-.3a5.8,5.8,0,0,1-2.9-5V20.9a5.8,5.8,0,0,1,1.7-4.1,6.3,6.3,0,0,1,4.3-1.7A6,6,0,0,1,60.5,21.2ZM37.8,39.6l-5.2-1.7a13.6,13.6,0,0,0-7.5-.3h-.7v-.3A3.5,3.5,0,0,1,27.1,34l6.6-1.7V28.6l-.5-.3a5.8,5.8,0,0,1-2.9-5V20.9A5.8,5.8,0,0,1,32,16.8a6.3,6.3,0,0,1,4.3-1.7,6,6,0,0,1,5.6,6.1v2.1a5.8,5.8,0,0,1-2.9,5l-.6.3v3.7L45.1,34a3.5,3.5,0,0,1,2.6,3.4v4.3l-.3.2h-.7l-7.1-2.1ZM24.7,17.4a12.9,12.9,0,0,1,11.4-6.9,12.8,12.8,0,0,1,11.3,6.8,7.7,7.7,0,0,0-.9,3.6v2.4A8.6,8.6,0,0,0,50,30v.5l-4.6,1.2-4.7-1.2V30a8.3,8.3,0,0,0,3.5-6.7V21.2a8.3,8.3,0,0,0-7.9-8.4,8.1,8.1,0,0,0-5.9,2.3,7.9,7.9,0,0,0-2.5,5.8v2.4A8.6,8.6,0,0,0,31.4,30v.5l-4.6,1.2-4.7-1.2V30a8.3,8.3,0,0,0,3.5-6.7V21.2A8.5,8.5,0,0,0,24.7,17.4Zm-5.4-7,3.8-3.7,3.2,2.1.7-.4a14.8,14.8,0,0,1,5-2.1l.7-.2.8-3.8h5.1l.8,3.8.7.2a16.2,16.2,0,0,1,5.1,2.1l.6.4,3.3-2.1,3.7,3.7-1.3,3.1A8.2,8.2,0,0,0,49,15.1h-.1a15.1,15.1,0,0,0-25.7.1,7.2,7.2,0,0,0-2.5-1.8ZM15.1,32.3V28.6l-.6-.3a6,6,0,0,1-2.9-5V20.9a5.9,5.9,0,0,1,1.8-4.1,6.1,6.1,0,0,1,4.2-1.7,6.1,6.1,0,0,1,5.7,6.1v2.1a5.8,5.8,0,0,1-2.9,5l-.6.3v3.7l4,1a5.7,5.7,0,0,0-1.7,4.1v.8l-3.6.9V36.6L12.5,33Zm-12.8-2h.9l8.3,4.8L7.3,52l-5-1.6Zm9.5,23.2-2.3-.7,4.1-16.4,2.7,1.5v.3L11.9,53.5Zm8,3.4a1,1,0,0,1,.4-.9l2-2.1a1.8,1.8,0,0,1,.9-.4,1.3,1.3,0,0,1,1.3,1.3,1.7,1.7,0,0,1-.3,1l-2.1,2a1.5,1.5,0,0,1-.9.4A1.3,1.3,0,0,1,19.8,56.9Zm3.5,3.5a1.3,1.3,0,0,1,.4-1l2-2a1.5,1.5,0,0,1,.9-.4,1.3,1.3,0,0,1,1.3,1.3,1,1,0,0,1-.4.9l-2,2.1a1.5,1.5,0,0,1-.9.4A1.3,1.3,0,0,1,23.3,60.4Zm3.5,3.5a1.7,1.7,0,0,1,.3-1l2.1-2a1.5,1.5,0,0,1,.9-.4,1.3,1.3,0,0,1,1.3,1.3,1,1,0,0,1-.4.9l-2,2.1a1.8,1.8,0,0,1-.9.4A1.3,1.3,0,0,1,26.8,63.9Zm4.8,4.8a1.3,1.3,0,0,1-1.3-1.3,1.7,1.7,0,0,1,.3-1l2.1-2a1.1,1.1,0,0,1,.9-.4,1.3,1.3,0,0,1,1.3,1.3,1,1,0,0,1-.4.9l-2,2.1A1.8,1.8,0,0,1,31.6,68.7Zm5.6,1.1H37a1.1,1.1,0,0,1-.8-.3l-.9-.7.9-.9a4.1,4.1,0,0,0,.7-1.1l1.1.9a1.3,1.3,0,0,1,.4.9A1.2,1.2,0,0,1,37.2,69.8ZM47.6,59.3h-.2l-.8-.2-6.3-5.3-1.5,1.8,6.1,5.1a1.2,1.2,0,0,1,.5.9,1.2,1.2,0,0,1-1.2,1.2h-.3l-.8-.2-6.3-5.3-1.5,1.8,6.2,5.1a1.5,1.5,0,0,1,.4.9,1.2,1.2,0,0,1-1.2,1.2,1.6,1.6,0,0,1-1.2-.4l-2.6-2.2a3.8,3.8,0,0,0-3.2-2,3.6,3.6,0,0,0-3.5-3.5,3.6,3.6,0,0,0-3.4-3.5,3.7,3.7,0,0,0-3.7-3.5,3.4,3.4,0,0,0-2.5,1.1l-2.1,2-.3.4-3.6-2.1,3.2-11,7.8-1.7a12.3,12.3,0,0,1,6.3.2l1.7.6-5.8,2.9a3.8,3.8,0,0,0-2.2,3.5v.2a3.9,3.9,0,0,0,3.9,3.9,3.6,3.6,0,0,0,2-.6L35.8,48a2.4,2.4,0,0,1,2.8.3l9.9,8.9a1.3,1.3,0,0,1,.4.9A1.2,1.2,0,0,1,47.6,59.3ZM69.8,45.8,50.2,55.6l-.2-.2-9.8-8.8a4.7,4.7,0,0,0-3.1-1.2,4.5,4.5,0,0,0-2.5.7l-4.3,2.6-.8.2a1.6,1.6,0,0,1-1.6-1.6v-.2a1.6,1.6,0,0,1,.9-1.4l6.5-3.3a5,5,0,0,1,3.6-.3l7.3,2.1H48L69.8,32.7Z"/></g></g></svg>