<svg xmlns="http://www.w3.org/2000/svg" xmlns:xlink="http://www.w3.org/1999/xlink" viewBox="0 0 68.2 68.2"><defs><style>.cls-1{fill:url(#linear-gradient);}.cls-2{fill:url(#linear-gradient-2);}</style><linearGradient id="linear-gradient" x1="34.1" y1="-22.81" x2="34.1" y2="55.31" gradientUnits="userSpaceOnUse"><stop offset="0" stop-color="#2af598"/><stop offset="1" stop-color="#009efd"/></linearGradient><linearGradient id="linear-gradient-2" x1="34.1" y1="-22.81" x2="34.1" y2="55.31" xlink:href="#linear-gradient"/></defs><title>icon-course-marketing</title><g id="Layer_2" data-name="Layer 2"><g id="Icon"><path class="cls-1" d="M40,32.8h-.1A7.6,7.6,0,0,0,42,27.4a7.9,7.9,0,1,0-15.8,0,7.6,7.6,0,0,0,2.1,5.4h-.1a6.7,6.7,0,0,0-6.6,6.6v5.9a1.3,1.3,0,0,0,.4.9,1.1,1.1,0,0,0,.9.4h8.9a1.3,1.3,0,1,0,0-2.6h-2V42.6a1.3,1.3,0,0,0-2.6,0V44h-3V39.4a4,4,0,0,1,4-4H40a4,4,0,0,1,4,4V44H41V42.6a1.3,1.3,0,0,0-2.6,0V44h-2a1.3,1.3,0,1,0,0,2.6h8.9a1.3,1.3,0,0,0,1.3-1.3V39.4A6.7,6.7,0,0,0,40,32.8Zm-5.9,0a5.4,5.4,0,0,1-5.4-5.4,5.4,5.4,0,0,1,10.8,0A5.4,5.4,0,0,1,34.1,32.8Z"/><path class="cls-2" d="M57.8,35.4a5.3,5.3,0,1,0,0-2.6H55.4A21.1,21.1,0,0,0,50,20l5-5a6.1,6.1,0,0,0,3.7,1.2A6.7,6.7,0,1,0,52,9.5a6.1,6.1,0,0,0,1.2,3.7l-5,5a20.4,20.4,0,0,0-12.8-5.3V10.4a5.3,5.3,0,0,0,4-5.1,5.3,5.3,0,1,0-10.6,0,5.3,5.3,0,0,0,4,5.1v2.5A20.4,20.4,0,0,0,20,18.2l-5-5a6.1,6.1,0,0,0,1.2-3.7,6.3,6.3,0,0,0-3-5.4.9.9,0,0,0-.7-.3,1.3,1.3,0,0,0-1,.6,1.3,1.3,0,0,0,.3,1.8,4,4,0,0,1,1.8,3.3A4.1,4.1,0,1,1,8.4,5.6,1.2,1.2,0,0,0,9.2,5a1,1,0,0,0,.1-.9,1.2,1.2,0,0,0-1.2-1H7.7a6.6,6.6,0,0,0,1.8,13A6.1,6.1,0,0,0,13.2,15l5,5a21.1,21.1,0,0,0-5.4,12.8H10.4a5.3,5.3,0,0,0-5.1-4,5.3,5.3,0,1,0,0,10.6,5.3,5.3,0,0,0,5.1-4h2.4a21.1,21.1,0,0,0,5.4,12.8l-5,5A6.1,6.1,0,0,0,9.5,52a6.7,6.7,0,1,0,6.7,6.7A6.1,6.1,0,0,0,15,55l5-5a21.1,21.1,0,0,0,12.8,5.4v2.4a5.3,5.3,0,1,0,2.6,0V55.4A21.1,21.1,0,0,0,48.2,50l5,5A6.1,6.1,0,0,0,52,58.7a6.7,6.7,0,0,0,13.3,0,4.6,4.6,0,0,0-.4-2.1,1.1,1.1,0,0,0-1.2-.9h-.4a1.1,1.1,0,0,0-.7.6,1.1,1.1,0,0,0-.1,1,2.7,2.7,0,0,1,.2,1.3,4.1,4.1,0,0,1-8.1,0,4.1,4.1,0,0,1,4.1-4.1,3.2,3.2,0,0,1,1.4.3h.5a1.5,1.5,0,0,0,1.2-.8,1.7,1.7,0,0,0,0-1,1.6,1.6,0,0,0-.7-.7,6.9,6.9,0,0,0-2.4-.5A6.1,6.1,0,0,0,55,53.2l-5-5a21.1,21.1,0,0,0,5.4-12.8Zm5.1-4a2.7,2.7,0,1,1,0,5.4,2.7,2.7,0,0,1,0-5.4ZM58.7,5.5a4.1,4.1,0,0,1,0,8.1,4.1,4.1,0,1,1,0-8.1ZM5.3,36.8a2.7,2.7,0,1,1,0-5.4,2.7,2.7,0,0,1,0,5.4ZM9.5,62.7a4.1,4.1,0,0,1,0-8.1,4.1,4.1,0,1,1,0,8.1ZM31.4,5.3h0a2.7,2.7,0,1,1,5.4,0,2.7,2.7,0,1,1-5.4,0Zm5.4,57.6a2.7,2.7,0,1,1-5.4,0,2.7,2.7,0,0,1,5.4,0ZM34.1,52.8A18.7,18.7,0,1,1,52.8,34.1,18.7,18.7,0,0,1,34.1,52.8Z"/></g></g></svg>