<svg xmlns="http://www.w3.org/2000/svg" xmlns:xlink="http://www.w3.org/1999/xlink" viewBox="0 0 69.1 69.1"><defs><style>.cls-1{fill:url(#linear-gradient);}.cls-2{fill:url(#linear-gradient-2);}.cls-3{fill:url(#linear-gradient-3);}.cls-4{fill:url(#linear-gradient-4);}.cls-5{fill:url(#linear-gradient-5);}.cls-6{fill:url(#linear-gradient-6);}</style><linearGradient id="linear-gradient" x1="34.53" y1="-22.39" x2="34.53" y2="55.74" gradientUnits="userSpaceOnUse"><stop offset="0" stop-color="#2af598"/><stop offset="1" stop-color="#009efd"/></linearGradient><linearGradient id="linear-gradient-2" x1="10.78" y1="-22.39" x2="10.78" y2="55.74" xlink:href="#linear-gradient"/><linearGradient id="linear-gradient-3" x1="34.54" y1="-22.39" x2="34.54" y2="55.74" xlink:href="#linear-gradient"/><linearGradient id="linear-gradient-4" x1="34.53" y1="-22.39" x2="34.53" y2="55.74" xlink:href="#linear-gradient"/><linearGradient id="linear-gradient-5" x1="51.69" y1="-22.39" x2="51.69" y2="55.74" xlink:href="#linear-gradient"/><linearGradient id="linear-gradient-6" x1="17.36" y1="-22.39" x2="17.36" y2="55.74" xlink:href="#linear-gradient"/></defs><title>icon-course-soft-skill</title><g id="Layer_2" data-name="Layer 2"><g id="Icon"><path class="cls-1" d="M68.9,42.7a6,6,0,0,0-5.1-2.9,6.4,6.4,0,0,0-2.8.7h-.2a5.5,5.5,0,0,0-4-1.8,4.1,4.1,0,0,0-1.9.5l-.7.3a7,7,0,0,0-4.1-1.4,6.3,6.3,0,0,0-3.3.9l-4.4,2.4H36.5a7.4,7.4,0,0,1-3.6-.9l-.8-.3a14.1,14.1,0,0,0-14.9,1.4h-.1l-2,1.7a6.1,6.1,0,0,1-2.2,1.3l-1-3.4a1.2,1.2,0,0,0-1.2-.8H1.2A1.2,1.2,0,0,0,0,41.8H0L3.2,68a1.3,1.3,0,0,0,1.2,1.1H18.7a1.3,1.3,0,0,0,1.2-1.2.8.8,0,0,0-.1-.4L18,61.6,23.7,58a2.6,2.6,0,0,1,1.5-.4h.9L38,59.9a13.7,13.7,0,0,0,2.8.2,15.6,15.6,0,0,0,7-1.6.1.1,0,0,0,.1-.1L68.5,44.3A1.2,1.2,0,0,0,68.9,42.7Zm-13-1.3a1.6,1.6,0,0,1,.9-.3,3.1,3.1,0,0,1,1.8.7l-7.4,4H51a10.9,10.9,0,0,0-.8-1.5Zm-8-.3H48a3.7,3.7,0,0,1,2.1-.6,5.3,5.3,0,0,1,1.7.4l-3.4,1.8a5.1,5.1,0,0,0-1.8-.9ZM5.4,66.7,2.5,42.9H9.9l7.2,23.8ZM46.6,56.5a14.1,14.1,0,0,1-5.8,1.3l-2.3-.2L26.6,55.4l-1.4-.2a6.4,6.4,0,0,0-2.7.7h-.1l-5.1,3.2L13.6,47.1a9.7,9.7,0,0,0,3.1-1.8l1.9-1.8a12.3,12.3,0,0,1,7.2-2.3A11.7,11.7,0,0,1,31,42.4l.9.4a10.3,10.3,0,0,0,4.6,1h7.9A4.8,4.8,0,0,1,49,47.3l-5.4-.2H42a25.6,25.6,0,0,0-4.7.4,1.1,1.1,0,0,0-1,1.3,1.2,1.2,0,0,0,1.2,1h.1l4.4-.3h1.5l6.8.3h0a1.2,1.2,0,0,0,1.2-1.2v-.2l.8-.4,9.8-5.3a3.3,3.3,0,0,1,1.7-.4,3.6,3.6,0,0,1,2.4.9Z"/><path class="cls-2" d="M10.8,60.2h0a3.1,3.1,0,1,0,3.1,3.1A3.1,3.1,0,0,0,10.8,60.2Zm0,3.9a.9.9,0,0,1-.8-.8.8.8,0,0,1,.8-.7h0l.5.2a.8.8,0,0,1,.2.5A.8.8,0,0,1,10.8,64.1Z"/><path class="cls-3" d="M34.5,0h0a7.1,7.1,0,0,0-7,7V9.9a7.1,7.1,0,0,0,14.1,0V7A7,7,0,0,0,34.5,0Zm4.7,9.9a4.7,4.7,0,0,1-4.7,4.7v.3h0v-.3a4.8,4.8,0,0,1-4.7-4.7V7a4.8,4.8,0,0,1,4.7-4.7A4.8,4.8,0,0,1,39.2,7Z"/><path class="cls-4" d="M55.9,18.5h-.1a1.5,1.5,0,0,0-1.1.6,3.7,3.7,0,0,1-2.9,1.4,3.6,3.6,0,0,1-2.4-.9l-.7-.6a1.1,1.1,0,0,0-.9-.5,5.7,5.7,0,0,0-3.2.9,8.4,8.4,0,0,0-5.3-2.6h-.1c-.5,0-.8.4-1.1.7a4.5,4.5,0,0,1-3.5,1.6,4.2,4.2,0,0,1-2.8-1,3,3,0,0,1-.8-.8,1.1,1.1,0,0,0-.9-.5h0a7.7,7.7,0,0,0-5.4,2.4l-.2.2a7.5,7.5,0,0,0-2.9-.9h-.1a1.5,1.5,0,0,0-1.1.6,3.7,3.7,0,0,1-2.9,1.4,3.4,3.4,0,0,1-2.4-.9l-.7-.6a1.2,1.2,0,0,0-.9-.5,6.8,6.8,0,0,0-6.8,6.9v5.8a1.2,1.2,0,0,0,1.1,1.2H22.5v1.7a1.2,1.2,0,0,0,1.2,1.2H45.4a1.2,1.2,0,0,0,1.2-1.2V32.4H61.2a1.2,1.2,0,0,0,1.2-1.2V25.4A7,7,0,0,0,55.9,18.5ZM22.5,24.6V30H9V25.4a4.5,4.5,0,0,1,3.9-4.5,6.4,6.4,0,0,0,4.6,1.9,5.9,5.9,0,0,0,4-1.5l.4-.4,1.3.4A7.5,7.5,0,0,0,22.5,24.6ZM44.3,33H24.8V24.6a5.6,5.6,0,0,1,4.8-5.4,6.7,6.7,0,0,0,9.5.6l.6-.6a5.6,5.6,0,0,1,4.6,5.4ZM60,30H46.6V24.6a9.3,9.3,0,0,0-.7-3.3,3.3,3.3,0,0,1,1.4-.4,6.2,6.2,0,0,0,4.5,1.9,6.3,6.3,0,0,0,4.1-1.5l.4-.4A4.5,4.5,0,0,1,60,25.4Z"/><path class="cls-5" d="M51.7,3.7A6.3,6.3,0,0,0,45.4,10v2.6a6.3,6.3,0,1,0,12.6,0V10A6.3,6.3,0,0,0,51.7,3.7Zm4,8.9a4,4,0,0,1-4,4v0a4,4,0,0,1-4-4V10a4,4,0,0,1,8,0Z"/><path class="cls-6" d="M17.4,3.7A6.3,6.3,0,0,0,11.1,10v2.6a6.3,6.3,0,0,0,6.3,6.3,6.3,6.3,0,0,0,6.3-6.3V10A6.3,6.3,0,0,0,17.4,3.7Zm3.9,8.9a4,4,0,0,1-3.9,4v0a4,4,0,0,1-4-4V10a3.9,3.9,0,0,1,4-3.9A3.9,3.9,0,0,1,21.3,10Z"/></g></g></svg>