<svg xmlns="http://www.w3.org/2000/svg" xmlns:xlink="http://www.w3.org/1999/xlink" viewBox="0 0 36.5 36.5"><defs><style>.cls-1{fill:url(#linear-gradient);}.cls-2{fill:url(#linear-gradient-2);}.cls-3{fill:url(#linear-gradient-3);}</style><linearGradient id="linear-gradient" x1="18.24" y1="36.48" x2="18.24" y2="0.09" gradientUnits="userSpaceOnUse"><stop offset="0" stop-color="#009dfc"/><stop offset="1" stop-color="#2af497"/></linearGradient><linearGradient id="linear-gradient-2" x1="24.51" y1="36.48" x2="24.51" y2="0.09" xlink:href="#linear-gradient"/><linearGradient id="linear-gradient-3" x1="7.77" y1="36.48" x2="7.77" y2="0.09" xlink:href="#linear-gradient"/></defs><title>icon-digital-02</title><g id="Layer_2" data-name="Layer 2"><g id="Layer_6" data-name="Layer 6"><path class="cls-1" d="M32,31.3A4.2,4.2,0,0,0,28.6,33l-1.2-.2a5.7,5.7,0,0,0-2.9.8,3.8,3.8,0,0,0-2.3-.8h-.3l-1.4-6.5h3.3v2.2a.7.7,0,0,0,1.4,0V26.3h2.9a.9.9,0,0,0,.8-.8,9.1,9.1,0,0,0-1.1-4.2,11.6,11.6,0,0,0-2-2.4V13.8a9.3,9.3,0,0,0-1.5-5.2c-.2-.2-.4-.4-.6-.4a.7.7,0,0,0-.6.4l-.3.4A18,18,0,0,0,19.9.9,2,2,0,0,0,18.2,0a1.9,1.9,0,0,0-1.6.9A18,18,0,0,0,13.7,9l-.3-.4a.7.7,0,0,0-.6-.4c-.2,0-.4.2-.6.4a9.3,9.3,0,0,0-1.5,5.2v5.1a8.6,8.6,0,0,0-3.1,6.6.8.8,0,0,0,.7.8h3.6v4.4a.7.7,0,1,0,1.4,0V26.3H16l-1,4.8a4.5,4.5,0,0,0-2.1,1.8,3.6,3.6,0,0,0-2.4-.9,4,4,0,0,0-1.5.3,4.9,4.9,0,0,0-3.8-1.7A5.2,5.2,0,0,0,0,35.8a.7.7,0,0,0,.7.7.7.7,0,0,0,.7-.7A3.8,3.8,0,0,1,5.2,32a3.7,3.7,0,0,1,3.1,1.7.6.6,0,0,0,.9.1,3.1,3.1,0,0,1,1.3-.3,2.3,2.3,0,0,1,2,1,.7.7,0,0,0,.6.3.7.7,0,0,0,.6-.4A3.7,3.7,0,0,1,17.2,32a3.8,3.8,0,0,1,3.3,2,.7.7,0,0,0,.9.4l.8-.2a2.3,2.3,0,0,1,1.7.8.5.5,0,0,0,.5.3l.5-.2a3.8,3.8,0,0,1,2.5-.9l1.2.2a.8.8,0,0,0,.9-.2A2.9,2.9,0,0,1,32,32.7a3.1,3.1,0,0,1,3.1,3.1.7.7,0,1,0,1.4,0A4.5,4.5,0,0,0,32,31.3ZM17.5,24.8V11.6c0-.2.1-.3.1-.4l.6-.3a.6.6,0,0,1,.6.3h0a.5.5,0,0,1,.2.4V24.8Zm9.9,0h-7V16.2a7.5,7.5,0,0,0,2.7,2.6l.9.6A7.3,7.3,0,0,1,27.4,24.8ZM23.7,10.4a9.8,9.8,0,0,1,.7,3.4v4.1l-.6-.3-.9-.6V13.8A8.1,8.1,0,0,1,23.7,10.4ZM17.8,1.7a.4.4,0,0,1,.4-.3.5.5,0,0,1,.5.3,19.3,19.3,0,0,1,1.9,3.8H15.9A19.3,19.3,0,0,1,17.8,1.7ZM15,11.2a15.8,15.8,0,0,1,.5-4.3H21a21,21,0,0,1,.5,4.3v4.1a7.4,7.4,0,0,1-1.1-3.9h0v-.2a1.3,1.3,0,0,0-.3-.8,2.1,2.1,0,0,0-1.8-1,2.2,2.2,0,0,0-1.8,1l-.3.8v.2h0A7.4,7.4,0,0,1,15,15.3Zm-2.2-.8a8,8,0,0,1,.7,3.4V17l-.8.6-.6.3V13.8A9.8,9.8,0,0,1,12.8,10.4Zm-.3,9,.9-.6a7.5,7.5,0,0,0,2.7-2.6v8.6h-7A7.3,7.3,0,0,1,12.5,19.4Zm4.7,11.2h-.6l.8-4.3h1.7l1.1,5.3A4.7,4.7,0,0,0,17.2,30.6Z"/><path class="cls-2" d="M24.5,30.4l-.5.2c-.1.2-.2.3-.2.5a.8.8,0,0,0,.2.5c.1.2.3.2.5.2s.4,0,.5-.2a.8.8,0,0,0,.2-.5c0-.2-.1-.3-.2-.5Z"/><path class="cls-3" d="M7.8,14.7a.7.7,0,0,0,.7-.7V8.9a.7.7,0,0,0-1.4,0V14A.7.7,0,0,0,7.8,14.7Z"/><path class="cls-3" d="M7.8,18.1a.7.7,0,0,0,.7-.7v-.3a.7.7,0,1,0-1.4,0v.3A.7.7,0,0,0,7.8,18.1Z"/></g></g></svg>