<svg xmlns="http://www.w3.org/2000/svg" viewBox="0 0 11.7 14.7"><title>icon-download</title><g id="Layer_2" data-name="Layer 2"><g id="Body"><path d="M7.9.1h-6A2,2,0,0,0,0,1.9V12.8a1.9,1.9,0,0,0,1.9,1.9H9.7a1.9,1.9,0,0,0,2-1.9V4.2c0-.1-.1-.2-.1-.3ZM8,1.3l2.5,2.5H8.9A.9.9,0,0,1,8,3ZM9.7,14H1.9A1.2,1.2,0,0,1,.7,12.8V1.9A1.3,1.3,0,0,1,1.9.7H7.3V3A1.6,1.6,0,0,0,8.9,4.5H11v8.3A1.2,1.2,0,0,1,9.7,14"/><path d="M8.8,11.6H2.9a.3.3,0,0,0-.3.3c0,.2.1.4.3.4H8.8c.2,0,.3-.2.3-.4a.3.3,0,0,0-.3-.3"/><path d="M5.6,10.3h.5L8.2,8.1a.4.4,0,0,0,0-.5c-.2-.2-.4-.2-.5,0L6.2,9.1V5.3a.4.4,0,0,0-.4-.4c-.2,0-.3.2-.3.4V9.1L4,7.6c-.1-.2-.3-.2-.5,0a.4.4,0,0,0,0,.5Z"/></g></g></svg>