<svg xmlns="http://www.w3.org/2000/svg" xmlns:xlink="http://www.w3.org/1999/xlink" viewBox="0 0 51.4 41"><defs><style>.cls-1{fill:url(#linear-gradient);}</style><linearGradient id="linear-gradient" y1="20.48" x2="51.41" y2="20.48" gradientUnits="userSpaceOnUse"><stop offset="0" stop-color="#d92068"/><stop offset="1" stop-color="#eb003b"/></linearGradient></defs><title>icon-quote-start</title><g id="Layer_2" data-name="Layer 2"><g id="Body"><path class="cls-1" d="M.2,41c0-1.8,0-4.3-.1-7.7S0,27.4,0,25.8q0-4.7.3-8.1a34.5,34.5,0,0,1,1.2-6.9A18.4,18.4,0,0,1,4.1,5,13.9,13.9,0,0,1,8.7,1.4,16,16,0,0,1,15.6,0l5.1,10.2c-3.7,0-6.3.9-7.9,2.5s-2.3,4.2-2.3,7.8H20.7V41Zm30.7,0c0-1.8,0-4.3-.1-7.7s-.1-5.9-.1-7.5q0-4.7.3-8.1a34.5,34.5,0,0,1,1.2-6.9A18.4,18.4,0,0,1,34.8,5a13.9,13.9,0,0,1,4.6-3.6A16,16,0,0,1,46.3,0l5.1,10.2c-3.7,0-6.3.9-7.9,2.5s-2.3,4.2-2.3,7.8H51.4V41Z"/></g></g></svg>