<svg xmlns="http://www.w3.org/2000/svg" xmlns:xlink="http://www.w3.org/1999/xlink" viewBox="0 0 62.6 70.8"><defs><style>.cls-1{fill:url(#linear-gradient);}</style><linearGradient id="linear-gradient" x1="31.29" y1="10339.03" x2="31.29" y2="10409.81" gradientTransform="matrix(1, 0, 0, -1, 0, 10409.81)" gradientUnits="userSpaceOnUse"><stop offset="0" stop-color="#009dfc"/><stop offset="1" stop-color="#2af497"/></linearGradient></defs><title>icon-edu-01_1</title><g id="Layer_2" data-name="Layer 2"><g id="Body"><path class="cls-1" d="M6.3,4.2H16.7V14.6a2,2,0,0,0,1.4,1.9l12.5,4.2a1.7,1.7,0,0,0,1.4,0l12.5-4.2a2,2,0,0,0,1.4-1.9V4.2H56.3a2.1,2.1,0,0,0,2.1-2.1A2.1,2.1,0,0,0,56.3,0H6.3A2.1,2.1,0,0,0,4.2,2.1,2.1,2.1,0,0,0,6.3,4.2ZM60.5,16.7H49.7a6.1,6.1,0,0,1-3.9,3.8L33.3,24.7a6.8,6.8,0,0,1-4,0L16.8,20.5a6.1,6.1,0,0,1-3.9-3.8H2.1a2,2,0,0,0-2.1,2V52a2.1,2.1,0,0,0,2.1,2.1H16.9a13.6,13.6,0,0,1-.2-2.1,14.6,14.6,0,0,1,29.2,0,13.6,13.6,0,0,1-.2,2.1H60.5A2.1,2.1,0,0,0,62.6,52V18.7a2.1,2.1,0,0,0-2.1-2ZM18.8,41.6H10.4a2.1,2.1,0,1,1,0-4.1h8.4a2.1,2.1,0,1,1,0,4.1Zm33.4,0H43.8a2.1,2.1,0,1,1,0-4.1h8.4a2,2,0,0,1,2,2.1A2,2,0,0,1,52.2,41.6Zm0-8.3H10.4a2.1,2.1,0,0,1-2.1-2.1,2.2,2.2,0,0,1,2.1-2.1H52.2a2.1,2.1,0,0,1,2,2.1A2,2,0,0,1,52.2,33.3ZM41.7,52A10.4,10.4,0,1,0,31.3,62.5,10.4,10.4,0,0,0,41.7,52ZM31.3,54.1A2.1,2.1,0,0,1,29.2,52a2,2,0,0,1,2.1-2,2.1,2.1,0,1,1,0,4.1ZM18.2,58.4l-3.7,3.9a1.8,1.8,0,0,0-.6,1.7A1.9,1.9,0,0,0,15,65.5l9,5a2,2,0,0,0,1.7.2,2.5,2.5,0,0,0,1.2-1.1l1.6-3.3A14.6,14.6,0,0,1,18.2,58.4Zm26.2,0A14.6,14.6,0,0,1,34,66.3l1.7,3.3a2.2,2.2,0,0,0,1.2,1.1,2,2,0,0,0,1.7-.2l9-5A1.9,1.9,0,0,0,48.7,64a1.8,1.8,0,0,0-.6-1.7Z"/></g></g></svg>