<svg xmlns="http://www.w3.org/2000/svg" xmlns:xlink="http://www.w3.org/1999/xlink" viewBox="0 0 62.1 73.4"><defs><style>.cls-1{fill:url(#linear-gradient);}.cls-2{fill:url(#linear-gradient-2);}.cls-3{fill:url(#linear-gradient-3);}.cls-4{fill:url(#linear-gradient-4);}.cls-5{fill:url(#linear-gradient-5);}.cls-6{fill:url(#linear-gradient-6);}.cls-7{fill:url(#linear-gradient-7);}.cls-8{fill:url(#linear-gradient-8);}.cls-9{fill:url(#linear-gradient-9);}.cls-10{fill:url(#linear-gradient-10);}.cls-11{fill:url(#linear-gradient-11);}.cls-12{fill:url(#linear-gradient-12);}.cls-13{fill:url(#linear-gradient-13);}.cls-14{fill:url(#linear-gradient-14);}</style><linearGradient id="linear-gradient" x1="31.05" y1="-20.24" x2="31.05" y2="57.89" gradientUnits="userSpaceOnUse"><stop offset="0" stop-color="#2af598"/><stop offset="1" stop-color="#009efd"/></linearGradient><linearGradient id="linear-gradient-2" x1="31.8" y1="-20.24" x2="31.8" y2="57.89" xlink:href="#linear-gradient"/><linearGradient id="linear-gradient-3" x1="57.8" y1="-20.24" x2="57.8" y2="57.89" xlink:href="#linear-gradient"/><linearGradient id="linear-gradient-4" x1="4.31" y1="-20.24" x2="4.31" y2="57.89" xlink:href="#linear-gradient"/><linearGradient id="linear-gradient-5" x1="50.65" y1="-20.24" x2="50.65" y2="57.89" xlink:href="#linear-gradient"/><linearGradient id="linear-gradient-6" x1="11.45" y1="-20.24" x2="11.45" y2="57.89" xlink:href="#linear-gradient"/><linearGradient id="linear-gradient-7" x1="9.07" y1="-20.24" x2="9.07" y2="57.89" xlink:href="#linear-gradient"/><linearGradient id="linear-gradient-8" x1="14.26" y1="-20.24" x2="14.26" y2="57.89" xlink:href="#linear-gradient"/><linearGradient id="linear-gradient-9" x1="35.68" y1="-20.24" x2="35.68" y2="57.89" xlink:href="#linear-gradient"/><linearGradient id="linear-gradient-10" x1="36.36" y1="-20.24" x2="36.36" y2="57.89" xlink:href="#linear-gradient"/><linearGradient id="linear-gradient-11" x1="38.53" y1="-20.24" x2="38.53" y2="57.89" xlink:href="#linear-gradient"/><linearGradient id="linear-gradient-12" x1="26.43" y1="-20.24" x2="26.43" y2="57.89" xlink:href="#linear-gradient"/><linearGradient id="linear-gradient-13" x1="25.75" y1="-20.24" x2="25.75" y2="57.89" xlink:href="#linear-gradient"/><linearGradient id="linear-gradient-14" x1="23.58" y1="-20.24" x2="23.58" y2="57.89" xlink:href="#linear-gradient"/></defs><title>icon-course-development</title><g id="Layer_2" data-name="Layer 2"><g id="Icon"><path class="cls-1" d="M46.9,18.7l-.7-.7A21.5,21.5,0,1,0,15.9,48.6l.6.6a13.5,13.5,0,0,1,4.2,9.7V71.6a1.8,1.8,0,0,0,1.8,1.8H39.6a1.8,1.8,0,0,0,1.8-1.8V58.9a13.6,13.6,0,0,1,4.4-9.8A21.7,21.7,0,0,0,46.9,18.7ZM22.5,73.1h0ZM39.1,71H23V68.9H39.1Zm0-4.4H23V64.4H39.1Zm0-4.5H23v-2H39.1Zm.5,11Zm4.5-25.7a15.8,15.8,0,0,0-5,10.4H23a15.5,15.5,0,0,0-4.9-10.3,19.5,19.5,0,0,1-6.3-14.2A19.3,19.3,0,1,1,44.1,47.4Z"/><path class="cls-2" d="M31.8,8.6A1.2,1.2,0,0,0,33,7.4V1.2A1.2,1.2,0,0,0,31.8,0a1.2,1.2,0,0,0-1.2,1.2V7.4A1.2,1.2,0,0,0,31.8,8.6Z"/><path class="cls-3" d="M60.9,29.9H54.7A1.1,1.1,0,0,0,53.5,31a1.2,1.2,0,0,0,1.2,1.2h6.2A1.2,1.2,0,0,0,62.1,31,1.1,1.1,0,0,0,60.9,29.9Z"/><path class="cls-4" d="M8.6,31a1.1,1.1,0,0,0-1.2-1.1H1.2A1.1,1.1,0,0,0,0,31a1.2,1.2,0,0,0,1.2,1.2H7.4A1.2,1.2,0,0,0,8.6,31Z"/><path class="cls-5" d="M48.2,15.1a1.2,1.2,0,0,0,.8-.4l4.9-4.9a1.2,1.2,0,0,0,.4-.8.9.9,0,0,0-.4-.8,1,1,0,0,0-1.6,0L47.4,13a1.1,1.1,0,0,0,0,1.7A1.2,1.2,0,0,0,48.2,15.1Z"/><path class="cls-6" d="M13.1,14.7a1.2,1.2,0,0,0,.8.4,1.2,1.2,0,0,0,.8-.4,1.1,1.1,0,0,0,0-1.7L9.8,8.2A.9.9,0,0,0,9,7.8a.9.9,0,0,0-.8.4,1.2,1.2,0,0,0-.4.8,1.2,1.2,0,0,0,.4.8Z"/><path class="cls-7" d="M10.5,43.9a1.4,1.4,0,0,0,0-.9,6.9,6.9,0,0,1-.7-1.5,1.1,1.1,0,0,0-1.1-.7H8.3a1.2,1.2,0,0,0-.7,1.5c.3.6.5,1.1.8,1.6a1,1,0,0,0,1,.7h.5A1.1,1.1,0,0,0,10.5,43.9Z"/><path class="cls-8" d="M18.8,54.9a11.1,11.1,0,0,0-3.1-4.8,24.4,24.4,0,0,1-3.9-4.6,1.1,1.1,0,0,0-1-.6l-.6.2a.9.9,0,0,0-.5.8,1.1,1.1,0,0,0,.1.8,23.3,23.3,0,0,0,4.3,5.1,10.5,10.5,0,0,1,2.5,3.8,1.1,1.1,0,0,0,1.1.8h.4a1.3,1.3,0,0,0,.7-.6A1.1,1.1,0,0,0,18.8,54.9Z"/><path class="cls-9" d="M36.9,32.9a1.3,1.3,0,0,1,.1-.6,1.1,1.1,0,0,0-.1-1.6,1.1,1.1,0,0,0-.8-.3,1.2,1.2,0,0,0-.9.5,2.9,2.9,0,0,0-.7,1.6h-.2a2,2,0,0,0-.8.4,1.1,1.1,0,0,0,.7,2.1.7.7,0,0,0,.6-.2h.5a.9.9,0,0,1,.6.3c0,.1.1.1.1.2v.3a1.1,1.1,0,0,0,1,1.3h.2a1.3,1.3,0,0,0,1.2-1.1A3.2,3.2,0,0,0,36.9,32.9Z"/><path class="cls-10" d="M38.3,24.7h-.7a2.7,2.7,0,0,0-2,.9h-.1a1.2,1.2,0,0,0-1.6,0,1.2,1.2,0,0,0-.1,1.7l1.2.7h0l.3.8a1.3,1.3,0,0,0,1,.6l.6-.2a1.1,1.1,0,0,0,.6-.7,1.4,1.4,0,0,0-.1-.9.2.2,0,0,1,.1-.4h.1c.1,0,.1,0,.1.1H38a1.3,1.3,0,0,0,1.2-.9,1.5,1.5,0,0,0-.2-.9A1.3,1.3,0,0,0,38.3,24.7Z"/><path class="cls-11" d="M45.8,37.1a4.4,4.4,0,0,0-1.3-3.4l.2-.3a3.7,3.7,0,0,0-1-5.2h-.2a5,5,0,0,0-3.8-5.8,4.9,4.9,0,0,0-1.7,0,3.4,3.4,0,1,0-6.8,0V42.8a3.9,3.9,0,0,0,3.9,3.9,3.6,3.6,0,0,0,2.3-.8,3.5,3.5,0,0,0,1.7.4,3.8,3.8,0,0,0,3.8-3.9h0v-.8A4.7,4.7,0,0,0,45.8,37.1ZM41,40.2h0a1,1,0,0,0-.9.8H40a1.5,1.5,0,0,1,.1-1.9.9.9,0,0,0,0-1.3.9.9,0,0,0-1.2,0,4.1,4.1,0,0,0-.7,1.1,1.1,1.1,0,0,1-.8,0l-.5-.2a.9.9,0,0,0-1.3.2.9.9,0,0,0,.2,1.3,4.1,4.1,0,0,0,1.9.5H38a2.6,2.6,0,0,0,.7,1.5.8.8,0,0,0,1.2.1.9.9,0,0,0,.3-.6.9.9,0,0,0,.8.4h.2v.4a2.1,2.1,0,0,1-4.2.1h0a.9.9,0,0,0-1.8,0h0a3.8,3.8,0,0,0,.8,2.3l-.9.2A2.1,2.1,0,0,1,33,42.8V22.3a1.6,1.6,0,0,1,3.2,0,1.5,1.5,0,0,1-.1.7l-.3.2a.8.8,0,0,0-.2,1.2.9.9,0,0,0,1.3.2,3.1,3.1,0,0,1,4.3.7,3,3,0,0,1,.2,3.3.8.8,0,0,0-1.2-.3,1,1,0,0,0-.4.5,2.5,2.5,0,0,0,.2,1.7v.2a.8.8,0,0,0,1.2,1.2l.3-.3a.8.8,0,0,0,1-.7.9.9,0,0,0-.5-.9l-.2-.2h0a.9.9,0,0,0,1.1-.2,2,2,0,0,1,.4,2.8c-.1,0-.1.1-.2.2a4.5,4.5,0,0,0-2-.4.9.9,0,0,0,0,1.8,3,3,0,0,1,3.1,3A3.1,3.1,0,0,1,41,40.2Z"/><path class="cls-12" d="M24.9,37h.2a1.1,1.1,0,0,0,1-1.3v-.3a.8.8,0,0,1,.7-.5h.5a.8.8,0,0,0,.7.2,1.1,1.1,0,0,0,.9-.4,1.2,1.2,0,0,0-.3-1.7,2,2,0,0,0-.8-.4h-.2a2.9,2.9,0,0,0-.7-1.6,1.2,1.2,0,0,0-.9-.5.9.9,0,0,0-.7.3,1.1,1.1,0,0,0-.2,1.6,1.3,1.3,0,0,1,.1.6,3,3,0,0,0-1.4,3A1.1,1.1,0,0,0,24.9,37Z"/><path class="cls-13" d="M25.2,29l.6.2a1.3,1.3,0,0,0,1-.6l.3-.8h0l1.2-.7a1.2,1.2,0,0,0-.1-1.7,1.2,1.2,0,0,0-1.6,0h-.1a2.7,2.7,0,0,0-2-.9h-.7a1.2,1.2,0,0,0-.9,1.4,1.3,1.3,0,0,0,1.2.9h.3c0-.1,0-.1.1-.1s.2.1.3.3,0,.2-.1.2A1.2,1.2,0,0,0,25.2,29Z"/><path class="cls-14" d="M27.8,19a3.4,3.4,0,0,0-3.7,3v.3h-.7a4.9,4.9,0,0,0-4.9,4.9c0,.3.1.6.1,1h-.2a3.7,3.7,0,0,0-1,5.2c0,.1.1.2.2.3a4.4,4.4,0,0,0-1.3,3.4,4.7,4.7,0,0,0,2.9,4.5v.8A3.8,3.8,0,0,0,23,46.3h0a3.3,3.3,0,0,0,1.7-.4,3.8,3.8,0,0,0,5.4-.8,3.6,3.6,0,0,0,.8-2.3v-11a.9.9,0,0,0-1.8,0v11A2.1,2.1,0,0,1,27,44.9l-.9-.2a3.8,3.8,0,0,0,.8-2.3.9.9,0,0,0-1.8,0A2.1,2.1,0,0,1,23,44.5a2,2,0,0,1-2-2h0V42h.1a.9.9,0,0,0,.8-.4.8.8,0,0,0,.9.8.6.6,0,0,0,.6-.3,2.6,2.6,0,0,0,.7-1.5h.8l1.4-.5a.9.9,0,0,0,.2-1.3.8.8,0,0,0-1.2-.2h0a1.7,1.7,0,0,1-1.4.2,4.1,4.1,0,0,0-.7-1.1.8.8,0,0,0-1.2.1A.7.7,0,0,0,22,39a1.5,1.5,0,0,1,.1,1.9H22a1,1,0,0,0-.9-.8,3,3,0,0,1-3.1-3,3.1,3.1,0,0,1,3.1-3.1h0a.9.9,0,0,0,0-1.8,4.5,4.5,0,0,0-2,.4,1.9,1.9,0,0,1,0-2.8l.2-.2a.9.9,0,0,0,1.1.2h0l-.2.2a.9.9,0,0,0-.4,1.2.9.9,0,0,0,.9.4l.3.3a.8.8,0,0,0,1.2-1.2h0v-.2a2.5,2.5,0,0,0,.2-1.7.9.9,0,0,0-1.1-.6.7.7,0,0,0-.5.4,3.1,3.1,0,0,1,1.2-4.2,3,3,0,0,1,3.3.2.9.9,0,0,0,1.3-.2.8.8,0,0,0-.2-1.2h0L26,23a1.5,1.5,0,0,1-.1-.7,1.6,1.6,0,0,1,1.6-1.6h.3a1.5,1.5,0,0,1,1.3,1.6v3.1a.9.9,0,0,0,1.8,0V22.4A3.4,3.4,0,0,0,27.8,19Z"/></g></g></svg>