<svg xmlns="http://www.w3.org/2000/svg" xmlns:xlink="http://www.w3.org/1999/xlink" viewBox="0 0 67.1 68.2"><defs><style>.cls-1{fill:url(#linear-gradient);}.cls-2{fill:url(#linear-gradient-2);}.cls-3{fill:url(#linear-gradient-3);}.cls-4{fill:url(#linear-gradient-4);}.cls-5{fill:url(#linear-gradient-5);}.cls-6{fill:url(#linear-gradient-6);}.cls-7{fill:url(#linear-gradient-7);}.cls-8{fill:url(#linear-gradient-8);}.cls-9{fill:url(#linear-gradient-9);}</style><linearGradient id="linear-gradient" x1="9.73" y1="0.75" x2="10.14" y2="69.24" gradientUnits="userSpaceOnUse"><stop offset="0" stop-color="#2af598"/><stop offset="1" stop-color="#009efd"/></linearGradient><linearGradient id="linear-gradient-2" x1="33.48" y1="0.61" x2="33.89" y2="69.1" xlink:href="#linear-gradient"/><linearGradient id="linear-gradient-3" x1="9.59" y1="0.75" x2="10" y2="69.24" xlink:href="#linear-gradient"/><linearGradient id="linear-gradient-4" x1="33.33" y1="0.61" x2="33.75" y2="69.1" xlink:href="#linear-gradient"/><linearGradient id="linear-gradient-5" x1="57.23" y1="0.47" x2="57.64" y2="68.96" xlink:href="#linear-gradient"/><linearGradient id="linear-gradient-6" x1="57.08" y1="0.47" x2="57.49" y2="68.96" xlink:href="#linear-gradient"/><linearGradient id="linear-gradient-7" x1="9.44" y1="0.75" x2="9.85" y2="69.25" xlink:href="#linear-gradient"/><linearGradient id="linear-gradient-8" x1="33.18" y1="0.61" x2="33.6" y2="69.1" xlink:href="#linear-gradient"/><linearGradient id="linear-gradient-9" x1="56.93" y1="0.47" x2="57.34" y2="68.96" xlink:href="#linear-gradient"/></defs><title>icon-course-all</title><g id="Layer_2" data-name="Layer 2"><g id="Icon"><path class="cls-1" d="M17.7,0H1.9A2,2,0,0,0,0,1.9V17.7a2,2,0,0,0,1.9,1.9H17.7a2,2,0,0,0,1.9-1.9V1.9A2,2,0,0,0,17.7,0ZM16,16H3.8V3.8H16Z"/><path class="cls-2" d="M41.4,0H25.6a2,2,0,0,0-1.9,1.9V17.7a2,2,0,0,0,1.9,1.9H41.4a1.9,1.9,0,0,0,1.9-1.9V1.9A1.9,1.9,0,0,0,41.4,0ZM39.7,16H27.5V3.8H39.7Z"/><path class="cls-3" d="M17.7,23.9H1.9A2,2,0,0,0,0,25.8V41.6a1.9,1.9,0,0,0,1.9,1.9H17.7a1.9,1.9,0,0,0,1.9-1.9V25.8A2,2,0,0,0,17.7,23.9ZM16,39.7H3.8v-12H16Z"/><path class="cls-4" d="M41.4,23.9H25.6a2,2,0,0,0-1.9,1.9V41.6a1.9,1.9,0,0,0,1.9,1.9H41.4a1.8,1.8,0,0,0,1.9-1.9V25.8A1.9,1.9,0,0,0,41.4,23.9ZM39.7,39.7H27.5v-12H39.7Z"/><path class="cls-5" d="M65.2,0H49.4a2,2,0,0,0-1.9,1.9V17.7a2,2,0,0,0,1.9,1.9H65.2a2,2,0,0,0,1.9-1.9V1.9A2,2,0,0,0,65.2,0ZM63.5,16H51.3V3.8H63.5Z"/><path class="cls-6" d="M65.2,23.9H49.4a2,2,0,0,0-1.9,1.9V41.6a1.9,1.9,0,0,0,1.9,1.9H65.2a1.9,1.9,0,0,0,1.9-1.9V25.8A2,2,0,0,0,65.2,23.9ZM63.5,39.7H51.3v-12H63.5Z"/><path class="cls-7" d="M17.7,48.6H1.9A2,2,0,0,0,0,50.5V66.3a1.9,1.9,0,0,0,1.9,1.9H17.7a1.9,1.9,0,0,0,1.9-1.9V50.5A2,2,0,0,0,17.7,48.6ZM16,64.6H3.8V52.4H16Z"/><path class="cls-8" d="M41.4,48.6H25.6a2,2,0,0,0-1.9,1.9V66.3a1.9,1.9,0,0,0,1.9,1.9H41.4a1.8,1.8,0,0,0,1.9-1.9V50.5A1.9,1.9,0,0,0,41.4,48.6Zm-1.7,16H27.5V52.4H39.7Z"/><path class="cls-9" d="M65.2,48.6H49.4a2,2,0,0,0-1.9,1.9V66.3a1.9,1.9,0,0,0,1.9,1.9H65.2a1.9,1.9,0,0,0,1.9-1.9V50.5A2,2,0,0,0,65.2,48.6Zm-1.7,16H51.3V52.4H63.5Z"/></g></g></svg>