<svg xmlns="http://www.w3.org/2000/svg" xmlns:xlink="http://www.w3.org/1999/xlink" viewBox="0 0 63.4 82.9"><defs><style>.cls-1{fill:url(#linear-gradient);}</style><linearGradient id="linear-gradient" x1="31.69" y1="10329.45" x2="31.69" y2="10412.32" gradientTransform="matrix(1, 0, 0, -1, 0, 10412.32)" gradientUnits="userSpaceOnUse"><stop offset="0" stop-color="#009dfc"/><stop offset="1" stop-color="#2af497"/></linearGradient></defs><title>icon-edu-02</title><g id="Layer_2" data-name="Layer 2"><g id="Body"><path class="cls-1" d="M14.6,17.1a2.6,2.6,0,0,0,1.7,2.3l14.6,4.8a2.2,2.2,0,0,0,1.6,0l14.6-4.8a2.6,2.6,0,0,0,1.7-2.3V4.9H61A2.5,2.5,0,0,0,61,0H2.4a2.5,2.5,0,0,0,0,4.9H14.6ZM31.7,39A7.3,7.3,0,1,0,39,46.3,7.3,7.3,0,0,0,31.7,39ZM46,24.9l-12,4a7.2,7.2,0,0,1-4.6,0l-12-4A21.7,21.7,0,0,0,9.8,41.4c0,10.3,8.1,20.1,14.9,26.5a55.6,55.6,0,0,0,5.5,4.7,2.4,2.4,0,0,0,3,0s2.4-1.8,5.5-4.7c6.8-6.4,14.9-16.2,14.9-26.5A21.7,21.7,0,0,0,46,24.9ZM31.7,58.5A12.2,12.2,0,1,1,43.9,46.3,12.2,12.2,0,0,1,31.7,58.5Zm15.5,7.6A78.6,78.6,0,0,1,36.1,76.5,7.1,7.1,0,0,1,31.7,78a7.7,7.7,0,0,1-4.4-1.4A94.2,94.2,0,0,1,16.2,66.1c-3.7,1.5-6.4,3.8-6.4,7,0,6.4,11,9.8,21.9,9.8s21.9-3.4,21.9-9.8c0-3.2-2.7-5.5-6.4-7ZM61,19.5a2.5,2.5,0,0,1-2.5-2.4V9.7H53.6v7.4A7.4,7.4,0,0,0,61,24.4a2.5,2.5,0,0,0,0-4.9Z"/></g></g></svg>