<svg xmlns="http://www.w3.org/2000/svg" xmlns:xlink="http://www.w3.org/1999/xlink" viewBox="0 0 63.8 63.8"><defs><style>.cls-1{fill:url(#linear-gradient);}</style><linearGradient id="linear-gradient" x1="31.88" y1="-25.04" x2="31.88" y2="53.09" gradientUnits="userSpaceOnUse"><stop offset="0" stop-color="#2af598"/><stop offset="1" stop-color="#009efd"/></linearGradient></defs><title>icon-course-optimization</title><g id="Layer_2" data-name="Layer 2"><g id="Icon"><path class="cls-1" d="M29.1,43.8l.9-.7A11.4,11.4,0,0,1,20.6,30a11.3,11.3,0,0,1,3.2-6.2,1.4,1.4,0,0,1,2,0,1.4,1.4,0,0,1,0,1.9,8.7,8.7,0,0,0,0,12.3,7.3,7.3,0,0,0,3.5,2.1h-.2a1.3,1.3,0,0,1-.2-1.9,1.2,1.2,0,0,1,1.9-.3h0l3.8,3a1.4,1.4,0,0,1,.3,1.9l-.3.3-3.8,3a1.4,1.4,0,0,1-1.9-.3,1.3,1.3,0,0,1,.2-1.9ZM47.6,33.7a2.8,2.8,0,0,1-.1.9,1.4,1.4,0,0,0,1.1,1.6h.3a1.3,1.3,0,0,0,1.3-1.2,3.6,3.6,0,0,0,.2-1,1.5,1.5,0,0,0-1.3-1.6,1.5,1.5,0,0,0-1.5,1.2ZM31.9,13.2a18.7,18.7,0,1,0,0,37.3A18.4,18.4,0,0,0,48.6,40a1.4,1.4,0,0,0-.7-1.8,1.3,1.3,0,0,0-1.7.6,15.9,15.9,0,1,1,1.4-9.4,1.4,1.4,0,0,0,2.7-.3h0A18.9,18.9,0,0,0,31.9,13.2ZM21.3,11.5l.6-.2.5-.2a1.5,1.5,0,0,0,.7-1.9,1.4,1.4,0,0,0-1.8-.6l-.7.3a1.4,1.4,0,0,0-.6,1.8,1.3,1.3,0,0,0,1.3.8ZM62.4,26.3H56.9a26.9,26.9,0,0,0-3.4-8.2l3.9-3.9a1.4,1.4,0,0,0,0-1.9L51.5,6.4a1.3,1.3,0,0,0-2,0h0l-3.9,3.9a24.6,24.6,0,0,0-8.2-3.4V1.4A1.4,1.4,0,0,0,36,0H27.7a1.4,1.4,0,0,0-1.4,1.4h0V6.9l-1,.2a1.5,1.5,0,0,0-1,1.7,1.5,1.5,0,0,0,1.7,1l1.9-.4A1.4,1.4,0,0,0,29.1,8V2.8h5.6V8a1.4,1.4,0,0,0,1.1,1.4A20.7,20.7,0,0,1,45,13.2a1.4,1.4,0,0,0,1.8-.2l3.7-3.7,3.9,4L50.7,17a1.4,1.4,0,0,0-.1,1.7,24,24,0,0,1,3.8,9.2,1.4,1.4,0,0,0,1.3,1.2H61v5.6H55.7a1.3,1.3,0,0,0-1.3,1.1A23.4,23.4,0,0,1,50.6,45a1.4,1.4,0,0,0,.1,1.8l3.7,3.7-3.9,3.9-3.7-3.7a1.4,1.4,0,0,0-2,2l4.7,4.7a1.5,1.5,0,0,0,2,0h0l5.9-5.9a1.5,1.5,0,0,0,0-2l-3.9-3.9a26.9,26.9,0,0,0,3.4-8.2h5.5A1.4,1.4,0,0,0,63.8,36V27.7a1.4,1.4,0,0,0-1.4-1.4ZM41.3,52.7a25.1,25.1,0,0,1-5.5,1.7,1.3,1.3,0,0,0-1.1,1.3V61H29.1V55.7a1.4,1.4,0,0,0-1.2-1.3,24,24,0,0,1-9.2-3.8,1.2,1.2,0,0,0-1.7.1l-3.7,3.7-4-3.9L13,46.8a1.4,1.4,0,0,0,.2-1.8,20.7,20.7,0,0,1-3.8-9.2A1.3,1.3,0,0,0,8,34.7H2.8V29.1H8a1.4,1.4,0,0,0,1.4-1.2,21.2,21.2,0,0,1,3.8-9.2A1.2,1.2,0,0,0,13,17L9.3,13.3l4-4L17,13a1.3,1.3,0,0,0,1.9,0,1.4,1.4,0,0,0,0-1.9L14.2,6.4a1.2,1.2,0,0,0-1.9,0h0L6.4,12.3a1.2,1.2,0,0,0,0,1.9h0l3.9,3.9a24.6,24.6,0,0,0-3.4,8.2H1.4A1.4,1.4,0,0,0,0,27.7V36a1.4,1.4,0,0,0,1.4,1.4H6.9a24.6,24.6,0,0,0,3.4,8.2L6.4,49.5a1.3,1.3,0,0,0,0,2h0l5.9,5.9a1.4,1.4,0,0,0,1.9,0h0l3.9-3.9a26.9,26.9,0,0,0,8.2,3.4v5.5a1.4,1.4,0,0,0,1.4,1.4H36a1.4,1.4,0,0,0,1.4-1.4V56.9a27.8,27.8,0,0,0,5.1-1.7,1.4,1.4,0,0,0,.7-1.8A1.5,1.5,0,0,0,41.3,52.7ZM38,40a1.5,1.5,0,0,0,2,0h0a11.5,11.5,0,0,0-6.2-19.4l.8-.7a1.4,1.4,0,0,0,.3-1.9,1.4,1.4,0,0,0-2-.2h0l-3.8,2.9a1.4,1.4,0,0,0-.2,2c.1.1.1.2.2.2l3.8,3a1.4,1.4,0,0,0,2-.2,1.5,1.5,0,0,0-.3-2h-.1a8.7,8.7,0,0,1,5.6,10.9A8.4,8.4,0,0,1,38,38,1.5,1.5,0,0,0,38,40Z"/></g></g></svg>