<svg xmlns="http://www.w3.org/2000/svg" viewBox="0 0 30.5 15.2"><defs><style>.cls-1{opacity:0.11;}</style></defs><title>icon-file</title><g id="Layer_2" data-name="Layer 2"><g id="Form_DK_Ung_tuyen_giang_vien" data-name="Form DK Ung tuyen giang vien"><g class="cls-1"><path d="M23.5,13.2H7.6a5.6,5.6,0,0,1,0-11.1H24.9a3.5,3.5,0,1,1,0,6.9H10.4a1.4,1.4,0,1,1,0-2.8H23.5v-2H10.4A3.5,3.5,0,0,0,6.9,7.6a3.5,3.5,0,0,0,3.5,3.5H24.9a5.6,5.6,0,0,0,5.6-5.6A5.6,5.6,0,0,0,24.9,0H7.6a7.6,7.6,0,0,0,0,15.2H23.5Z"/></g></g></g></svg>