<svg xmlns="http://www.w3.org/2000/svg" xmlns:xlink="http://www.w3.org/1999/xlink" viewBox="0 0 23 23"><defs><style>.cls-1{fill:url(#linear-gradient);}.cls-2{fill:url(#linear-gradient-2);}</style><linearGradient id="linear-gradient" x1="11447.57" y1="-749.44" x2="11470.57" y2="-749.44" gradientTransform="translate(-737.9 -11447.6) rotate(90)" gradientUnits="userSpaceOnUse"><stop offset="0" stop-color="#e32068"/><stop offset="1" stop-color="#f5003b"/></linearGradient><linearGradient id="linear-gradient-2" x1="11456.36" y1="-749.44" x2="11462.7" y2="-749.44" xlink:href="#linear-gradient"/></defs><title>icon-accordion</title><g id="Layer_2" data-name="Layer 2"><g id="Body"><path class="cls-1" d="M0,11.5A11.6,11.6,0,0,1,11.5,0,11.6,11.6,0,0,1,23,11.5,11.6,11.6,0,0,1,11.5,23,11.6,11.6,0,0,1,0,11.5Zm21.7,0A10.2,10.2,0,1,0,11.5,21.7,10.2,10.2,0,0,0,21.7,11.5Z"/><path class="cls-2" d="M10.9,14.9,6.3,10.3a1.1,1.1,0,0,1-.2-.6A1.9,1.9,0,0,1,6.3,9,1,1,0,0,1,7.6,9l3.9,3.9L15.4,9a1,1,0,0,1,1.3,0,1,1,0,0,1,0,1.3l-4.6,4.6A.9.9,0,0,1,10.9,14.9Z"/></g></g></svg>