<svg xmlns="http://www.w3.org/2000/svg" xmlns:xlink="http://www.w3.org/1999/xlink" viewBox="0 0 69.8 71.9"><defs><style>.cls-1{fill:url(#linear-gradient);}</style><linearGradient id="linear-gradient" x1="2273.88" y1="5216.79" x2="2273.88" y2="5207.79" gradientTransform="translate(-18130.9 -41604.6) scale(7.99)" gradientUnits="userSpaceOnUse"><stop offset="0" stop-color="#009dfc"/><stop offset="1" stop-color="#2af497"/></linearGradient></defs><title>icon-member</title><g id="Layer_2" data-name="Layer 2"><g id="Icon"><path class="cls-1" d="M19.9,57.5a8.2,8.2,0,0,0-5.8,7.8v6.6H55.8V65.3a8.1,8.1,0,0,0-5.9-7.8l-9.2-2.7V52.5a10.1,10.1,0,0,0,2.8-3.7h.7a4.7,4.7,0,0,0,4.6-4.7V37.2a13.9,13.9,0,0,0-27.8,0v6.9a4.7,4.7,0,0,0,4.6,4.7h.7a10.1,10.1,0,0,0,2.8,3.7v2.3Zm10-.5,3.3,3.3L29.8,63l-1.6-5.5ZM37,63.5,35.6,65H34.2l-1.4-1.5,2.1-1.7Zm-2.5,3.8h.9l1.1,2.3H33.3Zm-18.1-2a5.8,5.8,0,0,1,4.2-5.6L26,58.2,28.5,67,31,65l1.3,1.4-1.6,3.2H23.3V66.1H21v3.5H16.4Zm37.1,0v4.3H48.8V66.1H46.5v3.5H39.1l-1.6-3.2L38.9,65l2.4,2,2.6-8.8,5.4,1.5A5.9,5.9,0,0,1,53.5,65.3ZM41.6,57.5,40.1,63l-3.5-2.7L39.9,57Zm2.6-11.1h-.1a3.7,3.7,0,0,0,.1-1.1V41.8a2.3,2.3,0,0,1,2.3,2.3A2.3,2.3,0,0,1,44.2,46.4ZM34.9,25.6A11.6,11.6,0,0,1,46.5,37.2v2.9a4.6,4.6,0,0,0-2.3-.6v-.7a4,4,0,0,0-5.8-3.5l-2.5,1.3a5.8,5.8,0,0,1-2.6.6H29.1a3.4,3.4,0,0,0-3.2,2.3h-.3a4.6,4.6,0,0,0-2.3.6V37.2A11.6,11.6,0,0,1,34.9,25.6ZM25.6,46.4a2.3,2.3,0,0,1-2.3-2.3,2.4,2.4,0,0,1,2.3-2.3v3.5c0,.4.1.8.1,1.1ZM28,45.3V40.7a1.1,1.1,0,0,1,1.1-1.2h4.2a7.7,7.7,0,0,0,3.6-.9l2.6-1.2a1,1,0,0,1,.7-.2,1.7,1.7,0,0,1,1.7,1.6v6.5a7,7,0,0,1-7,6.9A6.9,6.9,0,0,1,28,45.3Zm6.9,9.3a10.4,10.4,0,0,0,3.5-.7v1.3l-3.5,3.5-3.5-3.5V53.9A10.4,10.4,0,0,0,34.9,54.6ZM34.9,0,32.7,4.1,27.8,5.3l3.5,2.9-1.8,6.1,5.4-3.4,5.5,3.4L38.6,8.2,42,5.3,37.1,4.1Zm1.5,9.1-1.5-1-1.5,1,.5-1.7-1.1-1,1.4-.3.7-1.3.7,1.3,1.5.3-1.2,1ZM48.8,7l-2.2,4-4.9,1.3,3.5,2.9-1.8,6,5.4-3.4,5.5,3.4-1.8-6,3.4-2.9L51,11Zm1.5,9-1.5-.9-1.5.9.5-1.6-1.1-1,1.5-.4.6-1.2.7,1.2,1.5.4-1.2,1ZM64.9,4.1,62.7,0,60.5,4.1,55.6,5.3l3.5,2.9-1.8,6.1,5.4-3.4,5.5,3.4L66.4,8.2l3.4-2.9Zm-.7,5-1.5-1-1.5,1,.5-1.7-1.1-1,1.5-.3.6-1.3.7,1.3,1.5.3-1.2,1ZM21,7l-2.2,4-4.9,1.3,3.4,2.9-1.7,6L21,17.8l5.5,3.4-1.8-6,3.4-2.9L23.2,11Zm1.5,9L21,15.1l-1.5.9.5-1.6-1.2-1,1.5-.4.7-1.2.7,1.2,1.5.4-1.2,1ZM7.1,0,4.9,4.1,0,5.3,3.4,8.2,1.7,14.3l5.4-3.4,5.5,3.4L10.8,8.2l3.4-2.9L9.3,4.1ZM8.6,9.1l-1.5-1-1.5,1,.5-1.7-1.2-1,1.5-.3.7-1.3.7,1.3,1.5.3-1.2,1ZM60.5,51.9l2.1,1a30.6,30.6,0,0,0,3.6-14.6A31.4,31.4,0,0,0,63,24.5a4.2,4.2,0,0,0,.9-2.4,3.5,3.5,0,1,0-3.5,3.5h.5a30,30,0,0,1,3,12.8A29.5,29.5,0,0,1,60.5,51.9ZM59.2,22.1a1.2,1.2,0,0,1,2.4,0,1.2,1.2,0,0,1-2.4,0ZM9.4,58a3.5,3.5,0,1,0,0-6.9H8.9a29.4,29.4,0,0,1-3-12.8A29.1,29.1,0,0,1,9.3,24.8L7.2,23.7A32.5,32.5,0,0,0,3.6,38.3,31.6,31.6,0,0,0,6.9,52.2,3.4,3.4,0,0,0,9.4,58Zm1.2-3.4a1.1,1.1,0,0,1-1.2,1.1,1.1,1.1,0,0,1-1.1-1.1,1.1,1.1,0,0,1,1.1-1.2A1.2,1.2,0,0,1,10.6,54.6Z"/></g></g></svg>