<svg xmlns="http://www.w3.org/2000/svg" width="179.048" height="58.972" viewBox="0 0 179.048 58.972">
  <g id="Group_142" data-name="Group 142" transform="translate(-2512.507 -72.871)">
    <path id="Path_75" data-name="Path 75" d="M2524.959,82.53a1.319,1.319,0,1,0-1.743,1.476,1.312,1.312,0,0,0,1.743-1,1.1,1.1,0,0,0,0-.477Z" fill="#f9003b"/>
    <path id="Path_76" data-name="Path 76" d="M2517.633,99.8a.443.443,0,0,0,.468-.418V83.1l5.587-8.953,5.582,8.953V99.378a.449.449,0,0,0,.472.418.444.444,0,0,0,.467-.418V82.991a.374.374,0,0,0-.061-.2l-6.052-9.7a.48.48,0,0,0-.408-.214.488.488,0,0,0-.412.214l-6.054,9.7a.4.4,0,0,0-.058.2V99.378A.446.446,0,0,0,2517.633,99.8Z"/>
    <path id="Path_77" data-name="Path 77" d="M2523.688,99.8a.443.443,0,0,0,.465-.418V83.993a1.286,1.286,0,0,1-.937.013V99.378A.448.448,0,0,0,2523.688,99.8Z"/>
    <path id="Path_78" data-name="Path 78" d="M2523.688,116.3a.448.448,0,0,0-.472.419v14.706a.45.45,0,0,0,.472.418.445.445,0,0,0,.465-.418V116.719A.443.443,0,0,0,2523.688,116.3Z"/>
    <path id="Path_79" data-name="Path 79" d="M2519.643,116.3a.445.445,0,0,0-.468.419v10.87a.472.472,0,0,0,.938,0v-10.87A.445.445,0,0,0,2519.643,116.3Z"/>
    <path id="Path_80" data-name="Path 80" d="M2527.867,116.3a.443.443,0,0,0-.467.419v10.87a.47.47,0,0,0,.934,0v-10.87A.444.444,0,0,0,2527.867,116.3Z"/>
    <path id="Path_81" data-name="Path 81" d="M2534.533,115.238h-.972V100.214a.423.423,0,0,0-.282-.381.5.5,0,0,0-.5.072l-9.088,7.46L2514.6,99.9a.515.515,0,0,0-.509-.072.418.418,0,0,0-.277.381v15.024h-1.007c-.167,0-.3.186-.3.418s.134.415.3.415h1.541a.218.218,0,0,0,.116-.033.418.418,0,0,0,.287-.382V101.168l8.615,7.074a.514.514,0,0,0,.636,0l8.619-7.074v14.488a.387.387,0,0,0,.189.324.253.253,0,0,0,.181.091h1.541c.164,0,.3-.182.3-.415S2534.7,115.238,2534.533,115.238Z"/>
    <g id="Group_140" data-name="Group 140">
      <path id="Path_82" data-name="Path 82" d="M2609.182,106.409a3.78,3.78,0,0,0-3.3,1.432l.719.621a2.89,2.89,0,0,1,2.565-1.187c1.748,0,2.628.766,2.628,2.288v1.045h-3.008a3.781,3.781,0,0,0-2.285.623,2.388,2.388,0,0,0-.964,2.07q0,2.671,3.418,2.674a3.841,3.841,0,0,0,2.839-1.045v.931h1.007v-6.4Q2612.8,106.406,2609.182,106.409Zm2.616,6.2a2.444,2.444,0,0,1-.52,1.78,3.2,3.2,0,0,1-2.31.716c-1.615,0-2.418-.606-2.418-1.817,0-1.252.787-1.882,2.365-1.882h2.883Z"/>
      <path id="Path_83" data-name="Path 83" d="M2621.973,107.275a3.131,3.131,0,0,1,2.4,1.187l.673-.621a4.008,4.008,0,0,0-3.076-1.432,3.7,3.7,0,0,0-3.122,1.408,6.251,6.251,0,0,0,0,6.746,3.707,3.707,0,0,0,3.122,1.412,4.014,4.014,0,0,0,3.076-1.434l-.673-.619a3.123,3.123,0,0,1-2.4,1.18q-3.109,0-3.108-3.91T2621.973,107.275Z"/>
      <path id="Path_84" data-name="Path 84" d="M2632.754,106.409a3.764,3.764,0,0,0-3.292,1.432l.716.621a2.889,2.889,0,0,1,2.566-1.187c1.75,0,2.624.766,2.624,2.288v1.045h-3.006a3.787,3.787,0,0,0-2.285.623,2.388,2.388,0,0,0-.961,2.07q0,2.671,3.416,2.674a3.835,3.835,0,0,0,2.836-1.045v.931h1.011v-6.4Q2636.379,106.406,2632.754,106.409Zm2.614,6.2a2.458,2.458,0,0,1-.513,1.78,3.211,3.211,0,0,1-2.31.716q-2.424,0-2.424-1.817c0-1.252.788-1.882,2.366-1.882h2.881Z"/>
      <path id="Path_85" data-name="Path 85" d="M2647.689,107.725a3.248,3.248,0,0,0-2.764-1.316q-3.476,0-3.475,4.783t3.475,4.783a3.249,3.249,0,0,0,2.764-1.318v1.2h1v-13.8h-1Zm-2.618,7.377q-2.611,0-2.612-3.91a6.312,6.312,0,0,1,.441-2.658,2.5,2.5,0,0,1,4.346,0,6.292,6.292,0,0,1,.443,2.658Q2647.689,115.1,2645.071,115.1Z"/>
      <path id="Path_86" data-name="Path 86" d="M2657.563,106.409a3.23,3.23,0,0,0-2.9,1.487,5.88,5.88,0,0,0-.83,3.3q0,4.782,3.969,4.783a4.616,4.616,0,0,0,3.371-1.434l-.735-.578a3.507,3.507,0,0,1-2.565,1.139q-3.036,0-3.036-3.7h6.469v-.446a5.307,5.307,0,0,0-.87-3.173A3.269,3.269,0,0,0,2657.563,106.409Zm-2.73,4.2a5.242,5.242,0,0,1,.329-1.788,2.312,2.312,0,0,1,.954-1.124,2.68,2.68,0,0,1,1.456-.421,2.622,2.622,0,0,1,1.467.432,3.348,3.348,0,0,1,1.277,2.9Z"/>
      <path id="Path_87" data-name="Path 87" d="M2676.382,106.409a3.524,3.524,0,0,0-3.175,1.7,3.09,3.09,0,0,0-3-1.7,3.44,3.44,0,0,0-2.763,1.22v-1.11h-1.007v9.342h1.007v-5.8a2.925,2.925,0,0,1,.672-2.041,2.481,2.481,0,0,1,1.944-.749c1.7,0,2.557.934,2.557,2.79v5.8h1.005V109.9a2.554,2.554,0,0,1,.72-1.912,2.6,2.6,0,0,1,1.914-.71c1.718,0,2.574.934,2.574,2.79v5.8h.969V109.9a3.507,3.507,0,0,0-.909-2.552A3.339,3.339,0,0,0,2676.382,106.409Z"/>
      <path id="Path_88" data-name="Path 88" d="M2690.465,106.519l-2.8,8.18-2.8-8.18h-1.1l3.42,9.362-.754,2.057a2.306,2.306,0,0,1-.612,1,1.8,1.8,0,0,1-1.1.269h-.371v.872h.464a2.524,2.524,0,0,0,1.763-.6,2.657,2.657,0,0,0,.638-1.085l4.339-11.879Z"/>
    </g>
    <g id="Group_141" data-name="Group 141">
      <path id="Path_89" data-name="Path 89" d="M2551.11,99.411c-2.524,0-4.363.8-5.5,2.381l2.575,1.963c.511-.84,1.543-1.255,3.083-1.255a5.338,5.338,0,0,1,2.579.464,1.754,1.754,0,0,1,.766,1.626v1.705h-4.532a5.325,5.325,0,0,0-3.953,1.447,4.881,4.881,0,0,0,.165,6.915,6.109,6.109,0,0,0,4.275,1.45c2.03,0,3.382-.55,4.045-1.643v1.449h3.281V104.78Q2557.9,99.413,2551.11,99.411Zm3.506,10.772c0,1.291-.33,2.118-1,2.479a6.261,6.261,0,0,1-2.668.357q-3.088,0-3.085-2.058c0-1.31.942-1.961,2.827-1.961h3.923Z" fill="#f9003b"/>
      <rect id="Rectangle_101" data-name="Rectangle 101" width="3.278" height="3.276" transform="translate(2564.622 93.017)" fill="#f9003b"/>
      <rect id="Rectangle_102" data-name="Rectangle 102" width="3.278" height="16.306" transform="translate(2564.622 99.607)" fill="#f9003b"/>
      <path id="Path_90" data-name="Path 90" d="M2592.167,99.411a6.65,6.65,0,0,0-5.164,2.124,6.289,6.289,0,0,0-4.613-2.124,5.176,5.176,0,0,0-4.261,1.934V99.607h-3.278v16.306h3.278V106.2a3.559,3.559,0,0,1,.9-2.572,3.131,3.131,0,0,1,2.349-.931,3.09,3.09,0,0,1,2.316.931,3.56,3.56,0,0,1,.9,2.572v9.717h3.28V106.2a3.555,3.555,0,0,1,.9-2.572,3.131,3.131,0,0,1,2.349-.931,3.1,3.1,0,0,1,2.316.931,3.557,3.557,0,0,1,.9,2.572v9.717h3.28V105.075a5.424,5.424,0,0,0-1.768-4.214A5.291,5.291,0,0,0,2592.167,99.411Z" fill="#f9003b"/>
    </g>
  </g>
</svg>
