<svg xmlns="http://www.w3.org/2000/svg" viewBox="0 0 109.2 36"><defs><style>.cls-1{fill:#fff;}</style></defs><title>logo</title><g id="Layer_2" data-name="Layer 2"><g id="Layer_1-2" data-name="Layer 1"><path class="cls-1" d="M7.6,5.9a.8.8,0,0,0-.8-.7A.9.9,0,0,0,6,6a.8.8,0,0,0,.5.8h.6c.3-.1.4-.3.5-.6V6Z"/><path class="cls-1" d="M3.1,16.4c.2,0,.3-.1.3-.2V6.2L6.8.8l3.4,5.4v10c0,.1.2.2.3.2s.3-.1.3-.2V6L7.1.1H6.6L2.9,6c0,.1-.1.1-.1.2v10C2.8,16.3,3,16.4,3.1,16.4Z"/><path class="cls-1" d="M6.8,16.4c.2,0,.3-.1.3-.2V6.8H6.5v9.4C6.5,16.3,6.7,16.4,6.8,16.4Z"/><path class="cls-1" d="M6.8,26.5l-.3.2v9a.5.5,0,0,0,.3.3.3.3,0,0,0,.3-.3v-9C7.1,26.6,7,26.5,6.8,26.5Z"/><path class="cls-1" d="M4.4,26.5c-.2,0-.3.1-.3.2v6.7c0,.1.1.2.3.2a.2.2,0,0,0,.2-.2V26.7A.2.2,0,0,0,4.4,26.5Z"/><path class="cls-1" d="M9.4,26.5c-.2,0-.3.1-.3.2v6.7c0,.1.1.2.3.2s.3-.1.3-.2V26.7Z"/><path class="cls-1" d="M13.4,25.8h-.6V16.7a.4.4,0,0,0-.1-.3c-.1,0-.3,0-.3.1L6.8,21,1.3,16.5H1l-.2.3v9.1H.2c-.1,0-.2.1-.2.3l.2.2h1a.2.2,0,0,0,.2-.2V17.3l5.2,4.3H7l5.3-4.3v9h1l.2-.2C13.6,25.9,13.5,25.8,13.4,25.8Z"/><path class="cls-1" d="M58.9,20.5a2.3,2.3,0,0,0-2,.8l.5.4a1.6,1.6,0,0,1,1.5-.7c1.1,0,1.6.4,1.6,1.4V23H58.7a2.1,2.1,0,0,0-1.4.4,1.5,1.5,0,0,0-.6,1.3c0,1,.7,1.6,2.1,1.6a2.1,2.1,0,0,0,1.7-.7v.6h.7V22.3C61.2,21.1,60.4,20.5,58.9,20.5Zm1.6,3.7a1.6,1.6,0,0,1-.3,1.1,1.8,1.8,0,0,1-1.4.5q-1.5,0-1.5-1.2c0-.7.5-1.1,1.5-1.1h1.7Z"/><path class="cls-1" d="M66.7,21a1.8,1.8,0,0,1,1.5.7l.4-.4a2.7,2.7,0,0,0-3.8,0,3.3,3.3,0,0,0-.6,2.1,3.2,3.2,0,0,0,.6,2,2.5,2.5,0,0,0,3.8,0l-.4-.4a1.9,1.9,0,0,1-1.5.8q-1.8,0-1.8-2.4T66.7,21Z"/><path class="cls-1" d="M73.3,20.5a2.2,2.2,0,0,0-2,.8l.5.4a1.6,1.6,0,0,1,1.5-.7c1.1,0,1.6.4,1.6,1.4V23H73.1a2,2,0,0,0-1.4.4,1.5,1.5,0,0,0-.6,1.3c0,1,.7,1.6,2.1,1.6a2.1,2.1,0,0,0,1.7-.7v.6h.6V22.3C75.5,21.1,74.8,20.5,73.3,20.5Zm1.6,3.7a1.6,1.6,0,0,1-.3,1.1,2,2,0,0,1-1.4.5q-1.5,0-1.5-1.2c0-.7.5-1.1,1.5-1.1h1.7Z"/><path class="cls-1" d="M82.4,21.3a1.8,1.8,0,0,0-1.7-.8c-1.4,0-2.1.9-2.1,2.9s.7,2.9,2.1,2.9a2,2,0,0,0,1.7-.8v.7H83V17.8h-.6Zm-1.6,4.5c-1,0-1.6-.8-1.6-2.4a4,4,0,0,1,.3-1.7,1.4,1.4,0,0,1,1.3-.7,1.4,1.4,0,0,1,1.4.7,7.2,7.2,0,0,1,.2,1.7C82.4,25,81.9,25.8,80.8,25.8Z"/><path class="cls-1" d="M88.5,20.5a2,2,0,0,0-1.8.9,3,3,0,0,0-.5,2c0,1.9.8,2.9,2.4,2.9a2.5,2.5,0,0,0,2-.9l-.4-.3a2.6,2.6,0,0,1-1.6.7c-1.2,0-1.8-.8-1.8-2.3h3.9v-.3a2.9,2.9,0,0,0-.5-1.9A1.9,1.9,0,0,0,88.5,20.5ZM86.8,23a3.6,3.6,0,0,1,.2-1.1,1.3,1.3,0,0,1,.6-.7l.9-.2.9.2a2.3,2.3,0,0,1,.7,1.8Z"/><path class="cls-1" d="M99.9,20.5a2.1,2.1,0,0,0-1.9,1,1.9,1.9,0,0,0-1.8-1,2.1,2.1,0,0,0-1.7.7v-.7h-.6v5.7h.6V22.7a1.8,1.8,0,0,1,.4-1.3,1.6,1.6,0,0,1,1.2-.4c1,0,1.5.5,1.5,1.7v3.5h.6V22.6a1.7,1.7,0,0,1,.5-1.2,1.5,1.5,0,0,1,1.1-.4c1.1,0,1.6.5,1.6,1.7v3.5h.6V22.6a2.5,2.5,0,0,0-.5-1.6A2.1,2.1,0,0,0,99.9,20.5Z"/><path class="cls-1" d="M108.5,20.5l-1.7,5-1.7-5h-.7l2.1,5.7-.4,1.3-.4.6-.7.2h-.2v.5h.3a1.2,1.2,0,0,0,1-.4.9.9,0,0,0,.4-.6l2.7-7.3Z"/><path class="cls-1" d="M23.5,16.2a3.9,3.9,0,0,0-3.3,1.4l1.6,1.2c.3-.5.9-.7,1.8-.7l1.6.2a1.2,1.2,0,0,1,.5,1v1.1H22.9a3.2,3.2,0,0,0-2.4.9,2.8,2.8,0,0,0-.8,2,2.9,2.9,0,0,0,.9,2.2,3.6,3.6,0,0,0,2.6.9,2.9,2.9,0,0,0,2.5-1v.8h2V19.5Q27.7,16.2,23.5,16.2Zm2.2,6.6a1.8,1.8,0,0,1-.6,1.5,5.4,5.4,0,0,1-1.7.2c-1.2,0-1.8-.4-1.8-1.3s.5-1.2,1.7-1.2h2.4Z"/><rect class="cls-1" x="31.8" y="12.3" width="2" height="2"/><rect class="cls-1" x="31.8" y="16.3" width="2" height="9.94"/><path class="cls-1" d="M48.6,16.2a4.1,4.1,0,0,0-3.2,1.3,3.5,3.5,0,0,0-2.8-1.3A3.1,3.1,0,0,0,40,17.4V16.3H38v9.9h2V20.3a1.9,1.9,0,0,1,.6-1.5,1.7,1.7,0,0,1,1.4-.6,1.8,1.8,0,0,1,1.4.6,1.9,1.9,0,0,1,.6,1.5v5.9h2V20.3a1.8,1.8,0,0,1,.5-1.5,2,2,0,0,1,1.4-.6,2,2,0,0,1,1.5.6,2.3,2.3,0,0,1,.5,1.5v5.9h2V19.6a3.3,3.3,0,0,0-1.1-2.5A3.1,3.1,0,0,0,48.6,16.2Z"/></g></g></svg>